<svg width="41" height="45" viewBox="0 0 41 45" fill="none" xmlns="http://www.w3.org/2000/svg">
<path fill-rule="evenodd" clip-rule="evenodd" d="M29.6667 4.58337C30.357 4.58337 30.9167 5.14302 30.9167 5.83337V9.58337H34.6667C35.357 9.58337 35.9167 10.143 35.9167 10.8334C35.9167 11.5237 35.357 12.0834 34.6667 12.0834H30.9167V15.8334C30.9167 16.5237 30.357 17.0834 29.6667 17.0834C28.9763 17.0834 28.4167 16.5237 28.4167 15.8334V12.0834H24.6667C23.9763 12.0834 23.4167 11.5237 23.4167 10.8334C23.4167 10.143 23.9763 9.58337 24.6667 9.58337H28.4167V5.83337C28.4167 5.14302 28.9763 4.58337 29.6667 4.58337Z" fill="#00BDDE"/>
<path d="M3.83337 10.8334C3.83337 7.29784 3.83337 5.53007 4.93172 4.43172C6.03007 3.33337 7.79784 3.33337 11.3334 3.33337C14.8689 3.33337 16.6367 3.33337 17.735 4.43172C18.8334 5.53007 18.8334 7.29784 18.8334 10.8334C18.8334 14.3689 18.8334 16.1367 17.735 17.235C16.6367 18.3334 14.8689 18.3334 11.3334 18.3334C7.79784 18.3334 6.03007 18.3334 4.93172 17.235C3.83337 16.1367 3.83337 14.3689 3.83337 10.8334Z" fill="#00BDDE"/>
<path d="M22.1667 29.1666C22.1667 25.6311 22.1667 23.8633 23.265 22.765C24.3634 21.6666 26.1312 21.6666 29.6667 21.6666C33.2022 21.6666 34.97 21.6666 36.0683 22.765C37.1667 23.8633 37.1667 25.6311 37.1667 29.1666C37.1667 32.7022 37.1667 34.4699 36.0683 35.5683C34.97 36.6666 33.2022 36.6666 29.6667 36.6666C26.1312 36.6666 24.3634 36.6666 23.265 35.5683C22.1667 34.4699 22.1667 32.7022 22.1667 29.1666Z" fill="#00BDDE"/>
<path opacity="0.5" d="M3.83337 29.1666C3.83337 25.6311 3.83337 23.8633 4.93172 22.765C6.03007 21.6666 7.79784 21.6666 11.3334 21.6666C14.8689 21.6666 16.6367 21.6666 17.735 22.765C18.8334 23.8633 18.8334 25.6311 18.8334 29.1666C18.8334 32.7022 18.8334 34.4699 17.735 35.5683C16.6367 36.6666 14.8689 36.6666 11.3334 36.6666C7.79784 36.6666 6.03007 36.6666 4.93172 35.5683C3.83337 34.4699 3.83337 32.7022 3.83337 29.1666Z" fill="#00BDDE"/>
<g clip-path="url(#clip0_11_1728)">
<rect x="2" y="30" width="38" height="14.1448" rx="7.07238" fill="#EF3340"/>
<path d="M9.62328 40L8.32719 34.9315H9.23952L10.1229 38.3962L11.0063 34.9315H11.8136L12.697 38.3962L13.5767 34.9315H14.4891L13.2002 40H12.1974L11.4081 36.9299L10.6298 40H9.62328ZM16.192 40.0941C15.8589 40.0941 15.5548 40.0084 15.2796 39.8371C15.0069 39.6657 14.7885 39.4352 14.6243 39.1456C14.4626 38.856 14.3818 38.5362 14.3818 38.1862C14.3818 37.9231 14.4288 37.6769 14.523 37.4476C14.6171 37.2159 14.7462 37.0132 14.9103 36.8394C15.0769 36.6632 15.27 36.5256 15.4896 36.4267C15.7092 36.3277 15.9434 36.2782 16.192 36.2782C16.4744 36.2782 16.7326 36.3386 16.9667 36.4593C17.2033 36.5775 17.4036 36.7404 17.5677 36.948C17.7318 37.1556 17.8513 37.3921 17.9261 37.6576C18.0009 37.9231 18.0178 38.2007 17.9768 38.4903H15.3303C15.3641 38.6255 15.4196 38.7473 15.4968 38.856C15.5741 38.9622 15.6718 39.0478 15.7901 39.113C15.9084 39.1758 16.0423 39.2083 16.192 39.2108C16.3464 39.2132 16.4864 39.177 16.6119 39.1021C16.7398 39.0249 16.846 38.9211 16.9305 38.7908L17.832 39.0008C17.6848 39.3218 17.4651 39.5849 17.1731 39.79C16.881 39.9928 16.554 40.0941 16.192 40.0941ZM15.3013 37.8278H17.0826C17.056 37.683 16.9993 37.5526 16.9124 37.4368C16.8279 37.3185 16.723 37.2244 16.5974 37.1544C16.4719 37.0844 16.3368 37.0494 16.192 37.0494C16.0471 37.0494 15.9132 37.0844 15.7901 37.1544C15.667 37.222 15.562 37.3149 15.4751 37.4331C15.3906 37.549 15.3327 37.6805 15.3013 37.8278ZM20.4353 36.2782C20.7877 36.2782 21.1087 36.3639 21.3984 36.5353C21.688 36.7067 21.9185 36.9372 22.0899 37.2268C22.2612 37.514 22.3469 37.8326 22.3469 38.1826C22.3469 38.4456 22.2974 38.693 22.1985 38.9247C22.0995 39.1565 21.9619 39.3604 21.7857 39.5366C21.612 39.7104 21.4092 39.8467 21.1775 39.9457C20.9482 40.0447 20.7008 40.0941 20.4353 40.0941C20.2085 40.0941 20.0069 40.0434 19.8307 39.9421C19.657 39.8383 19.5109 39.7043 19.3927 39.5402V40H18.5093V34.5694H19.3927V36.8322C19.5109 36.668 19.657 36.5353 19.8307 36.4339C20.0069 36.3301 20.2085 36.2782 20.4353 36.2782ZM20.4245 39.2397C20.6127 39.2397 20.7829 39.1927 20.9349 39.0985C21.0894 39.002 21.2125 38.8741 21.3042 38.7148C21.3959 38.5555 21.4418 38.3781 21.4418 38.1826C21.4418 37.9895 21.3959 37.8133 21.3042 37.654C21.2125 37.4923 21.0894 37.3644 20.9349 37.2702C20.7805 37.1761 20.6103 37.129 20.4245 37.129C20.241 37.129 20.0769 37.1773 19.9321 37.2739C19.7873 37.368 19.6738 37.4959 19.5918 37.6576C19.5097 37.8169 19.4687 37.9919 19.4687 38.1826C19.4687 38.3781 19.5097 38.5567 19.5918 38.7184C19.6738 38.8777 19.7873 39.0044 19.9321 39.0985C20.0769 39.1927 20.241 39.2397 20.4245 39.2397ZM24.0109 40.0652C23.8226 40.0531 23.6404 40.0157 23.4642 39.9529C23.2904 39.8878 23.1359 39.7997 23.0008 39.6886C22.8656 39.5776 22.7618 39.4449 22.6894 39.2904L23.4352 38.9718C23.4642 39.0201 23.5112 39.072 23.5764 39.1275C23.6416 39.1806 23.7188 39.2252 23.8081 39.2614C23.8998 39.2976 24 39.3157 24.1086 39.3157C24.2003 39.3157 24.2872 39.3037 24.3693 39.2795C24.4538 39.253 24.5213 39.2132 24.572 39.1601C24.6251 39.107 24.6517 39.0382 24.6517 38.9537C24.6517 38.8644 24.6203 38.7956 24.5575 38.7473C24.4972 38.6967 24.42 38.6593 24.3258 38.6351C24.2341 38.6086 24.1448 38.5844 24.0579 38.5627C23.8286 38.5168 23.615 38.4456 23.4171 38.3491C23.2216 38.2526 23.0635 38.1283 22.9428 37.9762C22.8246 37.8217 22.7654 37.6359 22.7654 37.4187C22.7654 37.1797 22.8282 36.9734 22.9537 36.7996C23.0816 36.6258 23.247 36.4918 23.4497 36.3977C23.6549 36.3036 23.8757 36.2565 24.1122 36.2565C24.3994 36.2565 24.6625 36.3169 24.9015 36.4375C25.1428 36.5558 25.3335 36.7236 25.4735 36.9408L24.7748 37.3535C24.741 37.2956 24.6939 37.2425 24.6336 37.1942C24.5732 37.1435 24.5044 37.1025 24.4272 37.0711C24.35 37.0373 24.2691 37.018 24.1846 37.0132C24.076 37.0084 23.9771 37.018 23.8878 37.0421C23.7985 37.0663 23.7261 37.1073 23.6705 37.1652C23.6174 37.2232 23.5909 37.3004 23.5909 37.3969C23.5909 37.4887 23.6271 37.5574 23.6995 37.6033C23.7719 37.6468 23.8588 37.6805 23.9602 37.7047C24.064 37.7288 24.1629 37.7554 24.257 37.7843C24.4694 37.8543 24.6686 37.94 24.8544 38.0414C25.0427 38.1427 25.1935 38.267 25.307 38.4143C25.4204 38.5615 25.4747 38.7377 25.4699 38.9428C25.4699 39.177 25.3999 39.3821 25.2599 39.5583C25.1199 39.7321 24.9389 39.8648 24.7168 39.9566C24.4972 40.0483 24.2619 40.0845 24.0109 40.0652ZM26.0046 36.3796H26.888V40H26.0046V36.3796ZM26.4535 35.9126C26.3232 35.9126 26.2134 35.8703 26.1241 35.7859C26.0348 35.699 25.9901 35.5904 25.9901 35.46C25.9901 35.3321 26.0348 35.2247 26.1241 35.1378C26.2134 35.0509 26.322 35.0075 26.4499 35.0075C26.5778 35.0075 26.6852 35.0509 26.7721 35.1378C26.8614 35.2247 26.9061 35.3321 26.9061 35.46C26.9061 35.5904 26.8626 35.699 26.7758 35.7859C26.6889 35.8703 26.5815 35.9126 26.4535 35.9126ZM29.6988 37.263H28.9964V40H28.113V37.263H27.5772V36.3796H28.113V35.2428H28.9964V36.3796H29.6988V37.263ZM31.8614 40.0941C31.5284 40.0941 31.2242 40.0084 30.9491 39.8371C30.6764 39.6657 30.4579 39.4352 30.2938 39.1456C30.1321 38.856 30.0512 38.5362 30.0512 38.1862C30.0512 37.9231 30.0983 37.6769 30.1924 37.4476C30.2866 37.2159 30.4157 37.0132 30.5798 36.8394C30.7464 36.6632 30.9394 36.5256 31.1591 36.4267C31.3787 36.3277 31.6128 36.2782 31.8614 36.2782C32.1438 36.2782 32.4021 36.3386 32.6362 36.4593C32.8727 36.5775 33.0731 36.7404 33.2372 36.948C33.4013 37.1556 33.5208 37.3921 33.5956 37.6576C33.6704 37.9231 33.6873 38.2007 33.6463 38.4903H30.9998C31.0336 38.6255 31.0891 38.7473 31.1663 38.856C31.2436 38.9622 31.3413 39.0478 31.4596 39.113C31.5778 39.1758 31.7118 39.2083 31.8614 39.2108C32.0159 39.2132 32.1559 39.177 32.2814 39.1021C32.4093 39.0249 32.5155 38.9211 32.6 38.7908L33.5015 39.0008C33.3542 39.3218 33.1346 39.5849 32.8426 39.79C32.5505 39.9928 32.2235 40.0941 31.8614 40.0941ZM30.9708 37.8278H32.7521C32.7255 37.683 32.6688 37.5526 32.5819 37.4368C32.4974 37.3185 32.3924 37.2244 32.2669 37.1544C32.1414 37.0844 32.0063 37.0494 31.8614 37.0494C31.7166 37.0494 31.5827 37.0844 31.4596 37.1544C31.3365 37.222 31.2315 37.3149 31.1446 37.4331C31.0601 37.549 31.0022 37.6805 30.9708 37.8278Z" fill="white"/>
</g>
<rect x="2.54286" y="30.5429" width="36.9143" height="13.059" rx="6.52952" stroke="white" stroke-width="1.08571"/>
<defs>
<clipPath id="clip0_11_1728">
<rect x="2" y="30" width="38" height="14.1448" rx="7.07238" fill="white"/>
</clipPath>
</defs>
</svg>
