<svg width="32" height="32" viewBox="0 0 32 32" fill="none" xmlns="http://www.w3.org/2000/svg">
<path fill-rule="evenodd" clip-rule="evenodd" d="M15.3334 28.0001H16.6667C21.6951 28.0001 24.2092 28.0001 25.7713 26.438C27.3334 24.8759 27.3334 22.3618 27.3334 17.3334V9.33081C27.1398 9.33352 26.868 9.33348 26.6667 9.33344H5.33342C5.13215 9.33348 4.86035 9.33352 4.66675 9.33081V17.3334C4.66675 22.3618 4.66675 24.8759 6.22885 26.438C7.79094 28.0001 10.3051 28.0001 15.3334 28.0001ZM20.0794 15.3328C20.4472 14.9208 20.4114 14.2887 19.9994 13.9208C19.5875 13.553 18.9553 13.5888 18.5875 14.0007L14.5715 18.4986L13.4127 17.2007C13.0449 16.7888 12.4127 16.753 12.0007 17.1208C11.5888 17.4886 11.553 18.1208 11.9208 18.5328L13.8256 20.6661C14.0153 20.8786 14.2867 21.0001 14.5715 21.0001C14.8564 21.0001 15.1277 20.8786 15.3175 20.6661L20.0794 15.3328Z" fill="#33BAFF"/>
<g opacity="0.5">
<path d="M2.66675 6.66667C2.66675 5.40959 2.66675 4.78105 3.05727 4.39052C3.4478 4 4.07634 4 5.33341 4H26.6667C27.9238 4 28.5524 4 28.9429 4.39052C29.3334 4.78105 29.3334 5.40959 29.3334 6.66667C29.3334 7.92375 29.3334 8.55228 28.9429 8.94281C28.5524 9.33333 27.9238 9.33333 26.6667 9.33333H5.33342C4.07634 9.33333 3.4478 9.33333 3.05727 8.94281C2.66675 8.55228 2.66675 7.92375 2.66675 6.66667Z" fill="#33BAFF"/>
</g>
</svg>
