<svg width="26" height="26" viewBox="0 0 26 26" fill="none" xmlns="http://www.w3.org/2000/svg">
<path d="M12.0706 21.6666C9.65748 21.6666 8.45094 21.6666 7.44376 21.1234C6.43658 20.5802 5.79712 19.5845 4.51819 17.5932L3.78065 16.4449C2.70467 14.7696 2.16669 13.932 2.16669 12.9999C2.16669 12.0678 2.70467 11.2302 3.78065 9.55493L4.51818 8.4066C5.79712 6.41532 6.43658 5.41968 7.44376 4.87647C8.45094 4.33325 9.65748 4.33325 12.0706 4.33325L14.9272 4.33325C19.1256 4.33325 21.2248 4.33325 22.5291 5.60246C23.8334 6.87166 23.8334 8.91441 23.8334 12.9999C23.8334 17.0854 23.8334 19.1282 22.5291 20.3974C21.2248 21.6666 19.1256 21.6666 14.9272 21.6666H12.0706Z" stroke="#1C274C" stroke-width="2"/>
<path d="M16.7916 10.2918L11.375 15.7084M11.375 10.2917L16.7916 15.7084" stroke="#1C274C" stroke-width="2" stroke-linecap="round"/>
</svg>
