<svg width="28" height="28" viewBox="0 0 28 28" fill="none" xmlns="http://www.w3.org/2000/svg">
<path d="M14.4318 2.50848L24.9318 6.70845C25.3402 6.87178 25.6668 7.36177 25.6668 7.79344V11.6668C25.6668 12.3084 25.1418 12.8334 24.5002 12.8334H3.50016C2.8585 12.8334 2.3335 12.3084 2.3335 11.6668V7.79344C2.3335 7.36177 2.66017 6.87178 3.0685 6.70845L13.5685 2.50848C13.8018 2.41514 14.1985 2.41514 14.4318 2.50848Z" stroke="#ADB3BC" stroke-width="2" stroke-miterlimit="10" stroke-linecap="round" stroke-linejoin="round"/>
<path d="M25.6668 25.6667H2.3335V22.1667C2.3335 21.525 2.8585 21 3.50016 21H24.5002C25.1418 21 25.6668 21.525 25.6668 22.1667V25.6667Z" stroke="#ADB3BC" stroke-width="2" stroke-miterlimit="10" stroke-linecap="round" stroke-linejoin="round"/>
<path d="M4.6665 21V12.8334" stroke="#ADB3BC" stroke-width="2" stroke-miterlimit="10" stroke-linecap="round" stroke-linejoin="round"/>
<path d="M9.3335 21V12.8334" stroke="#ADB3BC" stroke-width="2" stroke-miterlimit="10" stroke-linecap="round" stroke-linejoin="round"/>
<path d="M14 21V12.8334" stroke="#ADB3BC" stroke-width="2" stroke-miterlimit="10" stroke-linecap="round" stroke-linejoin="round"/>
<path d="M18.6665 21V12.8334" stroke="#ADB3BC" stroke-width="2" stroke-miterlimit="10" stroke-linecap="round" stroke-linejoin="round"/>
<path d="M23.3335 21V12.8334" stroke="#ADB3BC" stroke-width="2" stroke-miterlimit="10" stroke-linecap="round" stroke-linejoin="round"/>
<path d="M1.1665 25.6666H26.8332" stroke="#ADB3BC" stroke-width="2" stroke-miterlimit="10" stroke-linecap="round" stroke-linejoin="round"/>
<path d="M14 9.91663C14.9665 9.91663 15.75 9.13312 15.75 8.16663C15.75 7.20013 14.9665 6.41663 14 6.41663C13.0335 6.41663 12.25 7.20013 12.25 8.16663C12.25 9.13312 13.0335 9.91663 14 9.91663Z" stroke="#ADB3BC" stroke-width="2" stroke-miterlimit="10" stroke-linecap="round" stroke-linejoin="round"/>
</svg>
