<svg width="45" height="45" viewBox="0 0 45 45" fill="none" xmlns="http://www.w3.org/2000/svg">
<path opacity="0.5" d="M6.49587 38.5043C9.24175 41.2501 13.6612 41.2501 22.5 41.2501C31.3388 41.2501 35.7583 41.2501 38.5041 38.5043C41.25 35.7584 41.25 31.3388 41.25 22.5C41.25 13.6612 41.25 9.24175 38.5041 6.49587C35.7583 3.75 31.3388 3.75 22.5 3.75C13.6612 3.75 9.24175 3.75 6.49587 6.49587C3.75 9.24175 3.75 13.6613 3.75 22.5001C3.75 31.339 3.75 35.7584 6.49587 38.5043Z" fill="#FFBE4C"/>
<path d="M14.5592 18.558C14.5318 18.0829 14.5312 17.4456 14.5312 16.5142V3.87888C16.6984 3.75 19.3117 3.75 22.5 3.75C25.6883 3.75 28.3016 3.75 30.4688 3.87888V16.5142C30.4688 17.4456 30.4682 18.0829 30.4408 18.558C30.4124 19.0501 30.3606 19.2015 30.3477 19.2305C30.0718 19.8517 29.3912 20.1866 28.7307 20.0263C28.6998 20.0188 28.5482 19.9675 28.141 19.6897C27.7479 19.4216 27.2426 19.0332 26.5046 18.465L26.379 18.3682C25.6849 17.833 25.1439 17.416 24.5546 17.1599C23.2441 16.5905 21.7559 16.5905 20.4454 17.1599C19.8561 17.416 19.3151 17.833 18.621 18.3682L18.4954 18.465C17.7574 19.0332 17.2521 19.4216 16.859 19.6897C16.4518 19.9675 16.3002 20.0188 16.2693 20.0263C15.6088 20.1866 14.9282 19.8517 14.6523 19.2306C14.6394 19.2015 14.5876 19.0501 14.5592 18.558Z" fill="#FFBE4C"/>
</svg>
