<svg width="21" height="20" viewBox="0 0 21 20" fill="none" xmlns="http://www.w3.org/2000/svg">
<path d="M18.8334 11.6667V10C18.8334 9.30085 18.8334 8.67943 18.8227 8.12504H2.1775C2.16675 8.67943 2.16675 9.30085 2.16675 10V11.6667C2.16675 14.8094 2.16675 16.3808 3.14306 17.3571C4.11937 18.3334 5.69072 18.3334 8.83342 18.3334H12.1667C15.3094 18.3334 16.8808 18.3334 17.8571 17.3571C18.8334 16.3808 18.8334 14.8094 18.8334 11.6667Z" fill="#2F2F2F"/>
<path d="M6.95842 2.08337C6.95842 1.7382 6.67859 1.45837 6.33342 1.45837C5.98824 1.45837 5.70841 1.7382 5.70841 2.08337V3.39942C4.50897 3.49547 3.72156 3.73119 3.14306 4.30968C2.56456 4.88818 2.32884 5.6756 2.2328 6.87504H18.7674C18.6713 5.6756 18.4356 4.88818 17.8571 4.30968C17.2786 3.73119 16.4912 3.49547 15.2917 3.39942V2.08337C15.2917 1.7382 15.0119 1.45837 14.6667 1.45837C14.3216 1.45837 14.0417 1.7382 14.0417 2.08337V3.34413C13.4874 3.33337 12.8659 3.33337 12.1667 3.33337H8.83342C8.13422 3.33337 7.5128 3.33337 6.95842 3.34413V2.08337Z" fill="#2F2F2F"/>
</svg>
