<svg width="26" height="24" viewBox="0 0 26 24" fill="none" xmlns="http://www.w3.org/2000/svg">
<path d="M10.4722 23.75H16.0278C19.9291 23.75 21.8797 23.75 23.2809 22.8271C23.8876 22.4275 24.4084 21.9141 24.8137 21.3162C25.75 19.9349 25.75 18.0121 25.75 14.1665C25.75 10.3209 25.7498 8.3984 24.8135 7.01715C24.4082 6.4192 23.8874 5.90579 23.2807 5.50625C21.8795 4.58333 19.9289 4.58333 16.0276 4.58333H10.472C6.57073 4.58333 4.62009 4.58333 3.21885 5.50625C2.61224 5.90579 2.0914 6.4192 1.68607 7.01715C0.75 8.3981 0.75 10.3201 0.75 14.164L0.75 14.1665C0.75 18.0121 0.75 19.9349 1.68628 21.3162C2.09161 21.9141 2.61244 22.4275 3.21905 22.8271C4.6203 23.75 6.57094 23.75 10.4722 23.75Z" fill="white"/>
<path fill-rule="evenodd" clip-rule="evenodd" d="M13.25 11.0861C11.5241 11.0861 10.125 12.4653 10.125 14.1665C10.125 15.8678 11.5241 17.2469 13.25 17.2469C14.9759 17.2469 16.375 15.8678 16.375 14.1665C16.375 12.4653 14.9759 11.0861 13.25 11.0861ZM8.04167 14.1665C8.04167 11.3311 10.3735 9.03251 13.25 9.03251C16.1265 9.03251 18.4583 11.3311 18.4583 14.1665C18.4583 17.002 16.1265 19.3005 13.25 19.3005C10.3735 19.3005 8.04167 17.002 8.04167 14.1665Z" fill="#ED230D"/>
<path fill-rule="evenodd" clip-rule="evenodd" d="M19.8472 10.0593C19.8472 9.49222 20.3136 9.03251 20.8889 9.03251H21.5833C22.1586 9.03251 22.625 9.49222 22.625 10.0593C22.625 10.6264 22.1586 11.0861 21.5833 11.0861H20.8889C20.3136 11.0861 19.8472 10.6264 19.8472 10.0593Z" fill="#ED230D"/>
<path fill-rule="evenodd" clip-rule="evenodd" d="M8.25 2.02778C8.25 1.32208 8.76659 0.75 9.40385 0.75H17.0962C17.7334 0.75 18.25 1.32208 18.25 2.02778C18.25 2.73348 17.7334 3.30556 17.0962 3.30556H9.40385C8.76659 3.30556 8.25 2.73348 8.25 2.02778Z" fill="white"/>
</svg>
