<svg width="32" height="32" viewBox="0 0 32 32" fill="none" xmlns="http://www.w3.org/2000/svg">
<path d="M16 29.3333C23.3638 29.3333 29.3334 23.3638 29.3334 16C29.3334 8.63616 23.3638 2.66663 16 2.66663C8.63624 2.66663 2.66671 8.63616 2.66671 16C2.66671 18.1329 3.16753 20.1488 4.05799 21.9366C4.29462 22.4117 4.37339 22.9547 4.2362 23.4674L3.44205 26.4355C3.09731 27.7239 4.27606 28.9027 5.5645 28.5579L8.53255 27.7638C9.04528 27.6266 9.58832 27.7054 10.0634 27.942C11.8512 28.8325 13.8671 29.3333 16 29.3333Z" stroke="white" stroke-width="2"/>
<path d="M10.6666 14H21.3333" stroke="white" stroke-width="2" stroke-linecap="round"/>
<path d="M10.6666 18.6666H18" stroke="white" stroke-width="2" stroke-linecap="round"/>
</svg>
