<svg width="19" height="19" viewBox="0 0 19 19" fill="none" xmlns="http://www.w3.org/2000/svg">
<path fill-rule="evenodd" clip-rule="evenodd" d="M17.4166 9.49992C17.4166 13.8722 13.8722 17.4166 9.49992 17.4166C5.12766 17.4166 1.58325 13.8722 1.58325 9.49992C1.58325 5.12766 5.12766 1.58325 9.49992 1.58325C13.8722 1.58325 17.4166 5.12766 17.4166 9.49992ZM12.6906 7.10091C12.9225 7.33278 12.9225 7.70872 12.6906 7.9406L8.73226 11.8989C8.50039 12.1308 8.12445 12.1308 7.89257 11.8989L6.30924 10.3156C6.07737 10.0837 6.07737 9.70778 6.30924 9.47591C6.54111 9.24403 6.91706 9.24403 7.14893 9.47591L8.31242 10.6394L10.0817 8.87015L11.8509 7.10091C12.0828 6.86903 12.4587 6.86903 12.6906 7.10091Z" fill="#BCBCBC" fill-opacity="0.3"/>
</svg>
