<svg width="19" height="19" viewBox="0 0 19 19" fill="none" xmlns="http://www.w3.org/2000/svg">
<path fill-rule="evenodd" clip-rule="evenodd" d="M17.4167 9.49992C17.4167 13.8722 13.8723 17.4166 9.50004 17.4166C5.12779 17.4166 1.58337 13.8722 1.58337 9.49992C1.58337 5.12766 5.12779 1.58325 9.50004 1.58325C13.8723 1.58325 17.4167 5.12766 17.4167 9.49992ZM12.6907 7.10091C12.9226 7.33278 12.9226 7.70872 12.6907 7.9406L8.73239 11.8989C8.50051 12.1308 8.12457 12.1308 7.8927 11.8989L6.30936 10.3156C6.07749 10.0837 6.07749 9.70778 6.30936 9.47591C6.54124 9.24403 6.91718 9.24403 7.14905 9.47591L8.31254 10.6394L10.0818 8.87015L11.851 7.10091C12.0829 6.86903 12.4588 6.86903 12.6907 7.10091Z" fill="white"/>
</svg>
