<svg xmlns="http://www.w3.org/2000/svg" width="31" height="31" viewBox="0 0 31 31" fill="none">
<path fill-rule="evenodd" clip-rule="evenodd" d="M28.4166 15.5C28.4166 22.6337 22.6336 28.4167 15.4999 28.4167C8.36624 28.4167 2.58325 22.6337 2.58325 15.5C2.58325 8.36636 8.36624 2.58337 15.4999 2.58337C22.6336 2.58337 28.4166 8.36636 28.4166 15.5ZM20.7058 11.5859C21.0841 11.9642 21.0841 12.5776 20.7058 12.9559L14.2474 19.4142C13.8691 19.7925 13.2557 19.7925 12.8774 19.4142L10.2941 16.8309C9.91575 16.4526 9.91575 15.8392 10.2941 15.4609C10.6724 15.0825 11.2858 15.0825 11.6641 15.4609L13.5624 17.3592L16.4491 14.4725L19.3357 11.5859C19.7141 11.2075 20.3274 11.2075 20.7058 11.5859Z" fill="#cc313d"/>
</svg>