<svg width="20" height="20" viewBox="0 0 20 20" fill="none" xmlns="http://www.w3.org/2000/svg">
<path d="M18.3334 9.99996C18.3334 14.6023 14.6025 18.3333 10.0001 18.3333C5.39771 18.3333 1.66675 14.6023 1.66675 9.99996C1.66675 5.39759 5.39771 1.66663 10.0001 1.66663C14.6025 1.66663 18.3334 5.39759 18.3334 9.99996Z" fill="#2F2F2F"/>
<path fill-rule="evenodd" clip-rule="evenodd" d="M10.0001 6.04163C10.3453 6.04163 10.6251 6.32145 10.6251 6.66663V9.74108L12.5254 11.6414C12.7694 11.8854 12.7694 12.2812 12.5254 12.5252C12.2813 12.7693 11.8856 12.7693 11.6415 12.5252L9.55814 10.4419C9.44093 10.3247 9.37508 10.1657 9.37508 9.99996V6.66663C9.37508 6.32145 9.6549 6.04163 10.0001 6.04163Z" fill="white"/>
</svg>
