<svg width="37" height="36" viewBox="0 0 37 36" fill="none" xmlns="http://www.w3.org/2000/svg">
<path fill-rule="evenodd" clip-rule="evenodd" d="M33.5 18C33.5 9.71573 26.7843 3 18.5 3C10.2157 3 3.5 9.71573 3.5 18C3.5 26.2843 10.2157 33 18.5 33C26.7843 33 33.5 26.2843 33.5 18ZM18.5 9.375C19.1213 9.375 19.625 9.87868 19.625 10.5V19.5C19.625 20.1213 19.1213 20.625 18.5 20.625C17.8787 20.625 17.375 20.1213 17.375 19.5V10.5C17.375 9.87868 17.8787 9.375 18.5 9.375ZM18.5 25.5C19.3284 25.5 20 24.8284 20 24C20 23.1716 19.3284 22.5 18.5 22.5C17.6716 22.5 17 23.1716 17 24C17 24.8284 17.6716 25.5 18.5 25.5Z" fill="white"/>
</svg>
