<svg width="63" height="63" viewBox="0 0 63 63" fill="none" xmlns="http://www.w3.org/2000/svg">
<rect width="63" height="63" rx="31.5" fill="#F2F2F2"/>
<path fill-rule="evenodd" clip-rule="evenodd" d="M22.3393 28.887L24.7681 30.9109C27.8674 33.4937 29.417 34.7851 31.2499 34.7851C33.0828 34.7851 34.6325 33.4937 37.7318 30.9109L40.1605 28.887C40.7577 28.3893 41.0563 28.1405 41.2156 27.8004C41.3749 27.4602 41.3749 27.0716 41.3749 26.2942V22.8125C41.3749 22.2714 41.3749 21.7672 41.3718 21.2966C41.3521 18.3079 41.2068 16.6782 40.1393 15.6106C38.9036 14.375 36.9149 14.375 32.9374 14.375H29.5624C25.5849 14.375 23.5962 14.375 22.3606 15.6106C21.293 16.6782 21.1447 18.3079 21.1249 21.2966C21.1218 21.7672 21.1249 22.2714 21.1249 22.8125V26.2942C21.1249 27.0716 21.1249 27.4602 21.2842 27.8004C21.4436 28.1405 21.7421 28.3893 22.3393 28.887ZM26.6091 21.125C26.6091 20.426 27.1758 19.8594 27.8748 19.8594H34.6248C35.3238 19.8594 35.8904 20.426 35.8904 21.125C35.8904 21.824 35.3238 22.3906 34.6248 22.3906H27.8748C27.1758 22.3906 26.6091 21.824 26.6091 21.125ZM28.2966 26.1875C28.2966 25.4885 28.8633 24.9219 29.5623 24.9219H32.9373C33.6363 24.9219 34.2029 25.4885 34.2029 26.1875C34.2029 26.8865 33.6363 27.4531 32.9373 27.4531H29.5623C28.8633 27.4531 28.2966 26.8865 28.2966 26.1875Z" fill="#2F2F2F"/>
<path d="M24.7679 30.911L22.3391 28.887C21.742 28.3894 21.4434 28.1406 21.2841 27.8004C21.1247 27.4603 21.1247 27.0716 21.1247 26.2943V22.8125C21.1247 22.6281 21.1244 22.4479 21.124 22.2718C21.1233 21.9315 21.1227 21.6068 21.1247 21.2966C18.9309 21.5124 17.4542 21.9998 16.352 23.102C14.375 25.0791 14.375 28.2625 14.375 34.6264C14.375 40.9904 14.375 44.1724 16.352 46.1494C18.3291 48.1264 21.511 48.1264 27.875 48.1264H34.625C40.9889 48.1264 44.1709 48.1264 46.148 46.1494C48.125 44.1724 48.125 40.9904 48.125 34.6264C48.125 28.2625 48.125 25.0791 46.148 23.102C45.0452 21.9992 43.5674 21.5116 41.3716 21.296C41.3747 21.7665 41.3747 22.2715 41.3747 22.8125V26.2943C41.3747 27.0716 41.3747 27.4603 41.2154 27.8004C41.0561 28.1406 40.7575 28.3894 40.1604 28.887L37.7316 30.911C34.6323 33.4937 33.0826 34.7851 31.2497 34.7851C29.4169 34.7851 27.8672 33.4937 24.7679 30.911Z" fill="url(#paint0_linear_282_5304)"/>
<defs>
<linearGradient id="paint0_linear_282_5304" x1="48" y1="48.027" x2="17.7063" y2="10.4092" gradientUnits="userSpaceOnUse">
<stop offset="0.356985" stop-color="#CC313D"/>
<stop offset="1" stop-color="#F7C5CC"/>
</linearGradient>
</defs>
</svg>
