<svg width="63" height="63" viewBox="0 0 63 63" fill="none" xmlns="http://www.w3.org/2000/svg">
<rect width="63" height="63" rx="31.5" fill="#F2F2F2"/>
<path d="M48.125 19.4375C48.125 22.2334 45.8584 24.5 43.0625 24.5C40.2666 24.5 38 22.2334 38 19.4375C38 16.6416 40.2666 14.375 43.0625 14.375C45.8584 14.375 48.125 16.6416 48.125 19.4375Z" fill="#2F2F2F"/>
<path d="M37.3452 14.4396C35.6206 14.375 33.6104 14.375 31.25 14.375C23.295 14.375 19.3176 14.375 16.8463 16.8463C14.375 19.3176 14.375 23.295 14.375 31.25C14.375 39.205 14.375 43.1824 16.8463 45.6537C19.3176 48.125 23.295 48.125 31.25 48.125C39.205 48.125 43.1824 48.125 45.6537 45.6537C48.125 43.1824 48.125 39.205 48.125 31.25C48.125 28.8896 48.125 26.8794 48.0604 25.1548C46.7249 26.3232 44.9764 27.0312 43.0625 27.0312C38.8686 27.0312 35.4688 23.6314 35.4688 19.4375C35.4688 17.5236 36.1768 15.7751 37.3452 14.4396Z" fill="url(#paint0_linear_282_10851)"/>
<path d="M16.8464 45.6537C19.3177 48.125 23.2953 48.125 31.2505 48.125C39.2057 48.125 43.1833 48.125 45.6546 45.6537C47.9447 43.3637 48.1127 39.7804 48.125 32.9375H42.7929C41.2654 32.9375 40.5016 32.9375 39.8302 33.2463C39.1589 33.555 38.6619 34.1349 37.6678 35.2946L37.6678 35.2947L36.6461 36.4866L36.646 36.4866C35.652 37.6463 35.1549 38.2262 34.4836 38.535C33.8122 38.8438 33.0485 38.8438 31.5209 38.8438H30.98C29.4525 38.8438 28.6888 38.8438 28.0174 38.535C27.3461 38.2262 26.849 37.6463 25.8549 36.4866L24.8332 35.2947C23.8391 34.1349 23.3421 33.555 22.6707 33.2463C21.9994 32.9375 21.2356 32.9375 19.7081 32.9375H14.375C14.3873 39.7804 14.5563 43.3637 16.8464 45.6537Z" fill="#2F2F2F"/>
<defs>
<linearGradient id="paint0_linear_282_10851" x1="48" y1="48" x2="9" y2="9.5" gradientUnits="userSpaceOnUse">
<stop offset="0.356985" stop-color="#CC313D"/>
<stop offset="1" stop-color="#F7C5CC"/>
</linearGradient>
</defs>
</svg>
