<svg width="21" height="20" viewBox="0 0 21 20" fill="none" xmlns="http://www.w3.org/2000/svg">
<path fill-rule="evenodd" clip-rule="evenodd" d="M0.328125 4.62652C0.328125 2.06715 2.4029 -0.00762939 4.96227 -0.00762939C7.52164 -0.00762939 9.59642 2.06715 9.59642 4.62652C9.59642 7.18589 7.52164 9.26066 4.96227 9.26066C2.4029 9.26066 0.328125 7.18589 0.328125 4.62652Z" fill="#ACACAC" fill-opacity="0.8"/>
<path fill-rule="evenodd" clip-rule="evenodd" d="M11.0598 15.3582C11.0598 12.7989 13.1346 10.7241 15.694 10.7241C18.2533 10.7241 20.3281 12.7989 20.3281 15.3582C20.3281 17.9176 18.2533 19.9924 15.694 19.9924C13.1346 19.9924 11.0598 17.9176 11.0598 15.3582Z" fill="#ACACAC" fill-opacity="0.8"/>
<path d="M0.328125 15.4924C0.328125 13.371 0.328125 12.3104 0.987135 11.6514C1.64614 10.9924 2.7068 10.9924 4.82812 10.9924C6.94945 10.9924 8.01011 10.9924 8.66912 11.6514C9.32812 12.3104 9.32812 13.371 9.32812 15.4924C9.32812 17.6137 9.32812 18.6744 8.66912 19.3334C8.01011 19.9924 6.94945 19.9924 4.82812 19.9924C2.7068 19.9924 1.64614 19.9924 0.987135 19.3334C0.328125 18.6744 0.328125 17.6137 0.328125 15.4924Z" fill="#ACACAC" fill-opacity="0.8"/>
<path d="M11.3281 4.49237C11.3281 2.37105 11.3281 1.31039 11.9871 0.65138C12.6461 -0.00762939 13.7068 -0.00762939 15.8281 -0.00762939C17.9494 -0.00762939 19.0101 -0.00762939 19.6691 0.65138C20.3281 1.31039 20.3281 2.37105 20.3281 4.49237C20.3281 6.61369 20.3281 7.67435 19.6691 8.33336C19.0101 8.99237 17.9494 8.99237 15.8281 8.99237C13.7068 8.99237 12.6461 8.99237 11.9871 8.33336C11.3281 7.67435 11.3281 6.61369 11.3281 4.49237Z" fill="#ACACAC" fill-opacity="0.8"/>
</svg>
