<svg width="63" height="63" viewBox="0 0 63 63" fill="none" xmlns="http://www.w3.org/2000/svg">
<rect width="63" height="63" rx="31.5" fill="#F2F2F2"/>
<path fill-rule="evenodd" clip-rule="evenodd" d="M20.9203 15.8578C19.4375 17.3405 19.4375 19.727 19.4375 24.5V38C19.4375 42.773 19.4375 45.1595 20.9203 46.6422C22.403 48.125 24.7895 48.125 29.5625 48.125H32.9375C37.7105 48.125 40.097 48.125 41.5797 46.6422C43.0625 45.1595 43.0625 42.773 43.0625 38V24.5C43.0625 19.727 43.0625 17.3405 41.5797 15.8578C40.097 14.375 37.7105 14.375 32.9375 14.375H29.5625C24.7895 14.375 22.403 14.375 20.9203 15.8578ZM24.9219 39.6875C24.9219 38.9885 25.4885 38.4219 26.1875 38.4219H31.25C31.949 38.4219 32.5156 38.9885 32.5156 39.6875C32.5156 40.3865 31.949 40.9531 31.25 40.9531H26.1875C25.4885 40.9531 24.9219 40.3865 24.9219 39.6875ZM26.1875 31.6719C25.4885 31.6719 24.9219 32.2385 24.9219 32.9375C24.9219 33.6365 25.4885 34.2031 26.1875 34.2031H36.3125C37.0115 34.2031 37.5781 33.6365 37.5781 32.9375C37.5781 32.2385 37.0115 31.6719 36.3125 31.6719H26.1875ZM24.9219 26.1875C24.9219 25.4885 25.4885 24.9219 26.1875 24.9219H36.3125C37.0115 24.9219 37.5781 25.4885 37.5781 26.1875C37.5781 26.8865 37.0115 27.4531 36.3125 27.4531H26.1875C25.4885 27.4531 24.9219 26.8865 24.9219 26.1875Z" fill="url(#paint0_linear_282_5315)"/>
<path d="M19.8345 17.8483C19.4375 19.3389 19.4375 21.4238 19.4375 24.5V38C19.4375 41.0764 19.4375 43.1613 19.8345 44.6519L19.4375 44.6217C17.792 44.4598 16.6845 44.094 15.8578 43.2673C14.375 41.7846 14.375 39.3981 14.375 34.6251V27.8751C14.375 23.1021 14.375 20.7157 15.8578 19.2329C16.6845 18.4062 17.792 18.0404 19.4375 17.8786L19.8345 17.8483Z" fill="#2F2F2F"/>
<path d="M42.6655 44.6519C43.0625 43.1613 43.0625 41.0764 43.0625 38V24.5C43.0625 21.4238 43.0625 19.3389 42.6656 17.8483L43.0625 17.8786C44.708 18.0404 45.8156 18.4062 46.6423 19.2329C48.125 20.7157 48.125 23.1021 48.125 27.8751V34.6251C48.125 39.3981 48.125 41.7846 46.6423 43.2673C45.8156 44.094 44.708 44.4598 43.0625 44.6217L42.6655 44.6519Z" fill="#2F2F2F"/>
<defs>
<linearGradient id="paint0_linear_282_5315" x1="42.975" y1="48" x2="6.49183" y2="22.7892" gradientUnits="userSpaceOnUse">
<stop offset="0.356985" stop-color="#CC313D"/>
<stop offset="1" stop-color="#F7C5CC"/>
</linearGradient>
</defs>
</svg>
