<svg width="25" height="24" viewBox="0 0 25 24" fill="none" xmlns="http://www.w3.org/2000/svg">
<path fill-rule="evenodd" clip-rule="evenodd" d="M2.32812 6.62652C2.32812 4.06715 4.4029 1.99237 6.96227 1.99237C9.52164 1.99237 11.5964 4.06715 11.5964 6.62652C11.5964 9.18589 9.52164 11.2607 6.96227 11.2607C4.4029 11.2607 2.32812 9.18589 2.32812 6.62652Z" fill="#CC313D"/>
<path fill-rule="evenodd" clip-rule="evenodd" d="M13.0598 17.3582C13.0598 14.7989 15.1346 12.7241 17.694 12.7241C20.2533 12.7241 22.3281 14.7989 22.3281 17.3582C22.3281 19.9176 20.2533 21.9924 17.694 21.9924C15.1346 21.9924 13.0598 19.9176 13.0598 17.3582Z" fill="#CC313D"/>
<path d="M2.32812 17.4924C2.32812 15.371 2.32812 14.3104 2.98713 13.6514C3.64614 12.9924 4.7068 12.9924 6.82812 12.9924C8.94945 12.9924 10.0101 12.9924 10.6691 13.6514C11.3281 14.3104 11.3281 15.371 11.3281 17.4924C11.3281 19.6137 11.3281 20.6744 10.6691 21.3334C10.0101 21.9924 8.94945 21.9924 6.82812 21.9924C4.7068 21.9924 3.64614 21.9924 2.98713 21.3334C2.32812 20.6744 2.32812 19.6137 2.32812 17.4924Z" fill="#CC313D"/>
<path d="M13.3281 6.49237C13.3281 4.37105 13.3281 3.31039 13.9871 2.65138C14.6461 1.99237 15.7068 1.99237 17.8281 1.99237C19.9494 1.99237 21.0101 1.99237 21.6691 2.65138C22.3281 3.31039 22.3281 4.37105 22.3281 6.49237C22.3281 8.61369 22.3281 9.67435 21.6691 10.3334C21.0101 10.9924 19.9494 10.9924 17.8281 10.9924C15.7068 10.9924 14.6461 10.9924 13.9871 10.3334C13.3281 9.67435 13.3281 8.61369 13.3281 6.49237Z" fill="#CC313D"/>
</svg>
