<svg width="63" height="63" viewBox="0 0 63 63" fill="none" xmlns="http://www.w3.org/2000/svg">
<rect width="63" height="63" rx="31.5" fill="#F2F2F2"/>
<path fill-rule="evenodd" clip-rule="evenodd" d="M40.5312 29.5625C36.9515 29.5625 35.1617 29.5625 34.0496 28.4504C32.9375 27.3383 32.9375 25.5485 32.9375 21.9688C32.9375 18.389 32.9375 16.5992 34.0496 15.4871C35.1617 14.375 36.9515 14.375 40.5312 14.375C44.111 14.375 45.9008 14.375 47.0129 15.4871C48.125 16.5992 48.125 18.389 48.125 21.9688C48.125 25.5485 48.125 27.3383 47.0129 28.4504C45.9008 29.5625 44.111 29.5625 40.5312 29.5625ZM36.2613 17.6988C36.7556 17.2046 37.5569 17.2046 38.0512 17.6988L40.5312 20.1789L43.0113 17.6988C43.5056 17.2046 44.3069 17.2046 44.8012 17.6988C45.2954 18.1931 45.2954 18.9944 44.8012 19.4887L42.3211 21.9688L44.8012 24.4488C45.2954 24.9431 45.2954 25.7444 44.8012 26.2387C44.3069 26.7329 43.5056 26.7329 43.0113 26.2387L40.5312 23.7586L38.0512 26.2387C37.5569 26.7329 36.7556 26.7329 36.2613 26.2387C35.7671 25.7444 35.7671 24.9431 36.2613 24.4488L38.7414 21.9688L36.2613 19.4887C35.7671 18.9944 35.7671 18.1931 36.2613 17.6988Z" fill="#2F2F2F"/>
<path d="M45.6537 45.6537C48.125 43.1824 48.125 39.205 48.125 31.25C48.125 28.9583 48.125 26.9968 48.0659 25.3062C47.9678 26.7984 47.7069 27.7564 47.0129 28.4504C45.9008 29.5625 44.111 29.5625 40.5312 29.5625C36.9515 29.5625 35.1617 29.5625 34.0496 28.4504C32.9375 27.3383 32.9375 25.5485 32.9375 21.9688C32.9375 18.389 32.9375 16.5992 34.0496 15.4871C34.7436 14.7931 35.7016 14.5322 37.1938 14.4341C35.5032 14.375 33.5417 14.375 31.25 14.375C23.295 14.375 19.3176 14.375 16.8463 16.8463C14.375 19.3176 14.375 23.295 14.375 31.25C14.375 39.205 14.375 43.1824 16.8463 45.6537C19.3176 48.125 23.295 48.125 31.25 48.125C39.205 48.125 43.1824 48.125 45.6537 45.6537Z" fill="url(#paint0_linear_282_5310)"/>
<path d="M22.8125 33.3594C22.1135 33.3594 21.5469 33.926 21.5469 34.625C21.5469 35.324 22.1135 35.8906 22.8125 35.8906H29.5625C30.2615 35.8906 30.8281 35.324 30.8281 34.625C30.8281 33.926 30.2615 33.3594 29.5625 33.3594H22.8125Z" fill="#2F2F2F"/>
<path d="M22.8125 39.2656C22.1135 39.2656 21.5469 39.8323 21.5469 40.5312C21.5469 41.2302 22.1135 41.7969 22.8125 41.7969H32.9375C33.6365 41.7969 34.2031 41.2302 34.2031 40.5312C34.2031 39.8323 33.6365 39.2656 32.9375 39.2656H22.8125Z" fill="#2F2F2F"/>
<defs>
<linearGradient id="paint0_linear_282_5310" x1="48" y1="48" x2="9" y2="9.5" gradientUnits="userSpaceOnUse">
<stop offset="0.356985" stop-color="#CC313D"/>
<stop offset="1" stop-color="#F7C5CC"/>
</linearGradient>
</defs>
</svg>
