<svg width="85" height="85" viewBox="0 0 85 85" fill="none" xmlns="http://www.w3.org/2000/svg">
<path d="M42.4999 84.9998C65.9719 84.9998 84.9998 65.9719 84.9998 42.4999C84.9998 19.0278 65.9719 0 42.4999 0C19.0278 0 0 19.0278 0 42.4999C0 65.9719 19.0278 84.9998 42.4999 84.9998Z" fill="#F2F2F2"/>
<path d="M43.0098 45.815C42.7123 45.7725 42.3298 45.7725 41.9898 45.815C34.5098 45.56 28.5598 39.44 28.5598 31.9175C28.5598 24.225 34.7648 17.9775 42.4998 17.9775C50.1922 17.9775 56.4397 24.225 56.4397 31.9175C56.3972 39.44 50.4897 45.56 43.0098 45.815Z" fill="#CFCFCF"/>
<path d="M71.1448 73.8651C63.5798 80.7926 53.5499 85 42.4999 85C31.4499 85 21.42 80.7926 13.855 73.8651C14.28 69.8701 16.83 65.9601 21.3775 62.9001C33.0224 55.1651 52.0624 55.1651 63.6223 62.9001C68.1698 65.9601 70.7198 69.8701 71.1448 73.8651Z" fill="#CFCFCF"/>
<path fill-rule="evenodd" clip-rule="evenodd" d="M70.5 82.5834C77.1734 82.5834 82.5833 77.1735 82.5833 70.5001C82.5833 63.8266 77.1734 58.4167 70.5 58.4167C63.8265 58.4167 58.4166 63.8266 58.4166 70.5001C58.4166 77.1735 63.8265 82.5834 70.5 82.5834ZM71.4062 66.8751C71.4062 66.3746 71.0005 65.9688 70.5 65.9688C69.9995 65.9688 69.5937 66.3746 69.5937 66.8751L69.5937 69.5939H66.875C66.3745 69.5939 65.9687 69.9996 65.9687 70.5001C65.9687 71.0006 66.3745 71.4064 66.875 71.4064H69.5937V74.1251C69.5937 74.6256 69.9994 75.0313 70.5 75.0313C71.0005 75.0313 71.4062 74.6256 71.4062 74.1251L71.4062 71.4064H74.125C74.6255 71.4064 75.0312 71.0006 75.0312 70.5001C75.0312 69.9996 74.6255 69.5939 74.125 69.5939H71.4062V66.8751Z" fill="#CC313D"/>
</svg>
