<svg width="19" height="19" viewBox="0 0 19 19" fill="none" xmlns="http://www.w3.org/2000/svg">
<path d="M16.8388 7.2675C16.6092 6.90334 16.3638 6.56292 16.1105 6.24625C15.8176 5.87417 15.2634 5.8425 14.9309 6.175L12.5559 8.55C12.7301 9.0725 12.7617 9.67417 12.6034 10.2996C12.3263 11.4158 11.4238 12.3183 10.3076 12.5954C9.68214 12.7538 9.08048 12.7221 8.55798 12.5479C8.55798 12.5479 7.42589 13.68 6.61048 14.4954C6.21464 14.8913 6.34131 15.5879 6.87173 15.7938C7.71881 16.1183 8.59756 16.2846 9.50006 16.2846C10.9092 16.2846 12.2788 15.8729 13.5296 15.105C14.8042 14.3133 15.9521 13.1496 16.8784 11.6692C17.6305 10.4738 17.5909 8.46292 16.8388 7.2675Z" fill="#2F2F2F"/>
<path d="M11.0992 7.90083L7.90084 11.0992C7.49709 10.6875 7.23584 10.1175 7.23584 9.5C7.23584 8.25708 8.24917 7.23583 9.50001 7.23583C10.1175 7.23583 10.6875 7.49708 11.0992 7.90083Z" fill="#2F2F2F"/>
<path d="M14.4478 4.55208L11.7641 7.23583C11.1862 6.65 10.3866 6.30167 9.49992 6.30167C7.72659 6.30167 6.30159 7.73458 6.30159 9.5C6.30159 10.3867 6.65784 11.1862 7.23575 11.7642L4.55992 14.4479H4.552C3.67325 13.7354 2.86575 12.825 2.177 11.7483C1.38534 10.5054 1.38534 8.48667 2.177 7.24375C3.09534 5.80292 4.2195 4.67083 5.47034 3.895C6.72117 3.135 8.09075 2.71542 9.49992 2.71542C11.2653 2.71542 12.9753 3.36458 14.4478 4.55208Z" fill="#2F2F2F"/>
<path d="M11.7642 9.5C11.7642 10.7429 10.7509 11.7642 9.50006 11.7642C9.45256 11.7642 9.41298 11.7642 9.36548 11.7483L11.7484 9.36542C11.7642 9.41292 11.7642 9.4525 11.7642 9.5Z" fill="#2F2F2F"/>
<path d="M17.2347 1.76542C16.9972 1.52792 16.6093 1.52792 16.3718 1.76542L1.76553 16.3796C1.52803 16.6171 1.52803 17.005 1.76553 17.2425C1.88428 17.3533 2.03469 17.4167 2.19303 17.4167C2.35136 17.4167 2.50178 17.3533 2.62053 17.2346L17.2347 2.62042C17.4801 2.38292 17.4801 2.00292 17.2347 1.76542Z" fill="#2F2F2F"/>
</svg>
