<svg width="19" height="19" viewBox="0 0 19 19" fill="none" xmlns="http://www.w3.org/2000/svg">
<path d="M7.71867 9.5C7.71867 8.51624 8.51616 7.71875 9.49992 7.71875C10.4837 7.71875 11.2812 8.51624 11.2812 9.5C11.2812 10.4838 10.4837 11.2812 9.49992 11.2812C8.51616 11.2812 7.71867 10.4838 7.71867 9.5Z" fill="#2F2F2F"/>
<path fill-rule="evenodd" clip-rule="evenodd" d="M1.58325 9.5C1.58325 10.7978 1.91968 11.2349 2.59254 12.1091C3.93606 13.8545 6.18926 15.8333 9.49992 15.8333C12.8106 15.8333 15.0638 13.8545 16.4073 12.1091C17.0802 11.2349 17.4166 10.7978 17.4166 9.5C17.4166 8.20216 17.0802 7.76508 16.4073 6.89093C15.0638 5.14548 12.8106 3.16666 9.49992 3.16666C6.18926 3.16666 3.93606 5.14548 2.59254 6.89093C1.91968 7.76508 1.58325 8.20216 1.58325 9.5ZM9.49992 6.53125C7.86032 6.53125 6.53117 7.8604 6.53117 9.5C6.53117 11.1396 7.86032 12.4687 9.49992 12.4687C11.1395 12.4687 12.4687 11.1396 12.4687 9.5C12.4687 7.8604 11.1395 6.53125 9.49992 6.53125Z" fill="#2F2F2F"/>
</svg>
