<svg width="18" height="18" viewBox="0 0 18 18" fill="none" xmlns="http://www.w3.org/2000/svg">
<g clip-path="url(#clip0_58_4596)">
<path d="M4.18842 7.32413L6.45054 4.2635C7.91277 2.28512 8.64389 1.29593 9.32601 1.50497C10.0081 1.71401 10.0081 2.92725 10.0081 5.35373V5.58252C10.0081 6.4577 10.0081 6.89529 10.2878 7.16977L10.3026 7.18398C10.5882 7.45267 11.0437 7.45267 11.9546 7.45267C13.5937 7.45267 14.4133 7.45267 14.6903 7.9498C14.6949 7.95803 14.6994 7.96632 14.7037 7.97468C14.9652 8.47951 14.4906 9.12155 13.5415 10.4056L11.2794 13.4662C9.81715 15.4446 9.08602 16.4338 8.4039 16.2248C7.72177 16.0157 7.72179 14.8025 7.72183 12.376L7.72183 12.1473C7.72184 11.2721 7.72185 10.8345 7.44221 10.56L7.42741 10.5458C7.14173 10.2771 6.68629 10.2771 5.7754 10.2771C4.13623 10.2771 3.31665 10.2771 3.03966 9.77996C3.03508 9.77173 3.03062 9.76344 3.02629 9.75508C2.76481 9.25025 3.23935 8.60821 4.18842 7.32413Z" stroke="#2F2F2F" stroke-width="1.5"/>
</g>
<defs>
<clipPath id="clip0_58_4596">
<rect width="17.7297" height="17.7297" fill="white"/>
</clipPath>
</defs>
</svg>
