<svg width="18" height="18" viewBox="0 0 18 18" fill="none" xmlns="http://www.w3.org/2000/svg">
<g clip-path="url(#clip0_58_4604)">
<path d="M1.47754 9.92663C1.47754 7.14068 1.47754 5.7477 2.34303 4.88221C3.20851 4.01672 4.60149 4.01672 7.38745 4.01672H10.3424C13.1284 4.01672 14.5213 4.01672 15.3868 4.88221C16.2523 5.7477 16.2523 7.14068 16.2523 9.92663C16.2523 12.7126 16.2523 14.1056 15.3868 14.9711C14.5213 15.8365 13.1284 15.8365 10.3424 15.8365H7.38745C4.60149 15.8365 3.20851 15.8365 2.34303 14.9711C1.47754 14.1056 1.47754 12.7126 1.47754 9.92663Z" stroke="#2F2F2F" stroke-width="1.5"/>
<path d="M2.9458 4.43243C3.02886 3.74465 3.20225 3.26935 3.56427 2.90861C4.25908 2.21622 5.37738 2.21622 7.61396 2.21622H9.98622C12.2228 2.21622 13.3411 2.21622 14.0359 2.90861C14.3979 3.26935 14.5713 3.74465 14.6544 4.43243" stroke="#2F2F2F" stroke-width="1.5"/>
<circle cx="12.9279" cy="7.34105" r="1.10811" stroke="#2F2F2F" stroke-width="1.5"/>
<path d="M1.47754 10.2959L2.7715 9.16371C3.44469 8.57468 4.45929 8.60846 5.09181 9.24098L8.26079 12.41C8.76848 12.9176 9.56765 12.9869 10.1551 12.574L10.3754 12.4192C11.2206 11.8252 12.3643 11.894 13.1322 12.5851L15.5136 14.7284" stroke="#2F2F2F" stroke-width="1.5" stroke-linecap="round"/>
</g>
<defs>
<clipPath id="clip0_58_4604">
<rect width="17.7297" height="17.7297" fill="white"/>
</clipPath>
</defs>
</svg>
