<svg width="32" height="32" viewBox="0 0 32 32" fill="none" xmlns="http://www.w3.org/2000/svg">
<path fill-rule="evenodd" clip-rule="evenodd" d="M2.70361 15C3.21498 8.10323 8.9726 2.66663 16 2.66663C14.8922 2.66663 13.9058 3.15224 13.0944 3.8948C12.2871 4.63363 11.6048 5.66499 11.0529 6.88416C10.4979 8.11052 10.0667 9.54487 9.77485 11.1014C9.54091 12.3492 9.39854 13.6646 9.35109 15H2.70361ZM2.70361 17H9.35109C9.39854 18.3353 9.54091 19.6507 9.77485 20.8985C10.0667 22.455 10.4979 23.8894 11.0529 25.1158C11.6048 26.3349 12.2871 27.3663 13.0944 28.1051C13.9058 28.8477 14.8922 29.3333 16 29.3333C8.9726 29.3333 3.21498 23.8967 2.70361 17Z" fill="url(#paint0_linear_806_18603)"/>
<path d="M16 2.66663C17.1078 2.66663 18.0942 3.15224 18.9056 3.8948C19.713 4.63363 20.3952 5.665 20.9471 6.88416C21.5022 8.11052 21.9333 9.54487 22.2252 11.1014C22.4591 12.3492 22.6015 13.6646 22.6489 15H29.2964C28.785 8.10323 23.0274 2.66663 16 2.66663Z" fill="url(#paint1_linear_806_18603)"/>
<path d="M22.2252 20.8985C21.9333 22.4551 21.5022 23.8894 20.9471 25.1158C20.3952 26.3349 19.713 27.3663 18.9056 28.1051C18.0942 28.8477 17.1078 29.3333 16 29.3333C23.0274 29.3333 28.785 23.8967 29.2964 17H22.6489C22.6015 18.3353 22.4591 19.6507 22.2252 20.8985Z" fill="url(#paint2_linear_806_18603)"/>
<path d="M16.0001 4.52734C15.6334 4.52734 15.1597 4.68336 14.6089 5.18743C14.054 5.69523 13.4985 6.49107 13.0077 7.57537C12.5202 8.65248 12.1243 9.95275 11.8519 11.4058C11.6373 12.5501 11.5042 13.7631 11.4575 15.0002H20.5426C20.4959 13.7631 20.3628 12.5501 20.1483 11.4058C19.8759 9.95276 19.48 8.65249 18.9925 7.57538C18.5017 6.49108 17.9462 5.69523 17.3913 5.18743C16.8405 4.68336 16.3668 4.52734 16.0001 4.52734Z" fill="#2F2F2F"/>
<path d="M11.8519 20.5946C12.1243 22.0477 12.5202 23.3479 13.0077 24.4251C13.4985 25.5094 14.054 26.3052 14.6089 26.813C15.1597 27.3171 15.6334 27.4731 16.0001 27.4731C16.3668 27.4731 16.8405 27.3171 17.3913 26.813C17.9462 26.3052 18.5017 25.5094 18.9925 24.4251C19.48 23.3479 19.8759 22.0477 20.1483 20.5946C20.3628 19.4503 20.4959 18.2373 20.5426 17.0002H11.4575C11.5042 18.2373 11.6373 19.4503 11.8519 20.5946Z" fill="#2F2F2F"/>
<defs>
<linearGradient id="paint0_linear_806_18603" x1="29.1979" y1="29.2345" x2="-1.61568" y2="-1.09975" gradientUnits="userSpaceOnUse">
<stop offset="0.356985" stop-color="#CC313D"/>
<stop offset="1" stop-color="#F7C5CC"/>
</linearGradient>
<linearGradient id="paint1_linear_806_18603" x1="29.1979" y1="29.2345" x2="-1.61568" y2="-1.09975" gradientUnits="userSpaceOnUse">
<stop offset="0.356985" stop-color="#CC313D"/>
<stop offset="1" stop-color="#F7C5CC"/>
</linearGradient>
<linearGradient id="paint2_linear_806_18603" x1="29.1979" y1="29.2345" x2="-1.61568" y2="-1.09975" gradientUnits="userSpaceOnUse">
<stop offset="0.356985" stop-color="#CC313D"/>
<stop offset="1" stop-color="#F7C5CC"/>
</linearGradient>
</defs>
</svg>
