<svg width="19" height="19" viewBox="0 0 19 19" fill="none" xmlns="http://www.w3.org/2000/svg">
<path d="M2.17708 14.7646C1.8525 14.7646 1.58333 14.4954 1.58333 14.1708V9.65833C1.54375 7.51291 2.34333 5.48624 3.83167 3.96624C5.32 2.45416 7.315 1.62291 9.46042 1.62291C13.8463 1.62291 17.4167 5.19333 17.4167 9.57916V14.0917C17.4167 14.4162 17.1475 14.6854 16.8229 14.6854C16.4983 14.6854 16.2292 14.4162 16.2292 14.0917V9.57916C16.2292 5.85041 13.1971 2.81041 9.46042 2.81041C7.63167 2.81041 5.9375 3.51499 4.67875 4.79749C3.41208 6.08791 2.73917 7.80583 2.77083 9.64249V14.1629C2.77083 14.4954 2.50958 14.7646 2.17708 14.7646Z" fill="#484848"/>
<path d="M4.7025 9.85625H4.59959C2.93709 9.85625 1.58334 11.21 1.58334 12.8725V14.3608C1.58334 16.0233 2.93709 17.3771 4.59959 17.3771H4.7025C6.365 17.3771 7.71875 16.0233 7.71875 14.3608V12.8725C7.71875 11.21 6.365 9.85625 4.7025 9.85625Z" fill="#484848"/>
<path d="M14.4004 9.85625H14.2975C12.635 9.85625 11.2812 11.21 11.2812 12.8725V14.3608C11.2812 16.0233 12.635 17.3771 14.2975 17.3771H14.4004C16.0629 17.3771 17.4167 16.0233 17.4167 14.3608V12.8725C17.4167 11.21 16.0629 9.85625 14.4004 9.85625Z" fill="#484848"/>
</svg>
