<svg width="32" height="32" viewBox="0 0 32 32" fill="none" xmlns="http://www.w3.org/2000/svg">
<path d="M29.3332 16.0001C29.3332 23.3639 23.3636 29.3334 15.9998 29.3334C8.63604 29.3334 2.6665 23.3639 2.6665 16.0001C2.6665 8.63628 8.63604 2.66675 15.9998 2.66675C23.3636 2.66675 29.3332 8.63628 29.3332 16.0001Z" fill="url(#paint0_linear_282_6194)"/>
<path d="M15.9998 23.6666C16.5521 23.6666 16.9998 23.2189 16.9998 22.6666V14.6666C16.9998 14.1143 16.5521 13.6666 15.9998 13.6666C15.4476 13.6666 14.9998 14.1143 14.9998 14.6666V22.6666C14.9998 23.2189 15.4476 23.6666 15.9998 23.6666Z" fill="#2F2F2F"/>
<path d="M15.9998 9.33325C16.7362 9.33325 17.3332 9.9302 17.3332 10.6666C17.3332 11.403 16.7362 11.9999 15.9998 11.9999C15.2635 11.9999 14.6665 11.403 14.6665 10.6666C14.6665 9.9302 15.2635 9.33325 15.9998 9.33325Z" fill="#2F2F2F"/>
<defs>
<linearGradient id="paint0_linear_282_6194" x1="29.2344" y1="29.2347" x2="-1.58041" y2="-1.1851" gradientUnits="userSpaceOnUse">
<stop offset="0.356985" stop-color="#CC313D"/>
<stop offset="1" stop-color="#F7C5CC"/>
</linearGradient>
</defs>
</svg>
