<svg width="74" height="74" viewBox="0 0 74 74" fill="none" xmlns="http://www.w3.org/2000/svg">
<path fill-rule="evenodd" clip-rule="evenodd" d="M67.8333 36.9998C67.8333 19.9711 54.0287 6.1665 37 6.1665C19.9712 6.1665 6.16663 19.9711 6.16663 36.9998C6.16663 54.0286 19.9712 67.8332 37 67.8332C54.0287 67.8332 67.8333 54.0286 67.8333 36.9998ZM37 19.2707C38.2771 19.2707 39.3125 20.306 39.3125 21.5832V40.0832C39.3125 41.3603 38.2771 42.3957 37 42.3957C35.7228 42.3957 34.6875 41.3603 34.6875 40.0832V21.5832C34.6875 20.306 35.7228 19.2707 37 19.2707ZM37 52.4165C38.7028 52.4165 40.0833 51.0361 40.0833 49.3332C40.0833 47.6303 38.7028 46.2498 37 46.2498C35.2971 46.2498 33.9166 47.6303 33.9166 49.3332C33.9166 51.0361 35.2971 52.4165 37 52.4165Z" fill="#CC313D"/>
</svg>
