<svg width="41" height="40" viewBox="0 0 41 40" fill="none" xmlns="http://www.w3.org/2000/svg">
<path fill-rule="evenodd" clip-rule="evenodd" d="M10.2978 4.79784C8.83337 6.26231 8.83337 8.61933 8.83337 13.3334V26.6667C8.83337 31.3808 8.83337 33.7378 10.2978 35.2022C11.7623 36.6667 14.1193 36.6667 18.8334 36.6667H22.1667C26.8808 36.6667 29.2378 36.6667 30.7022 35.2022C32.1667 33.7378 32.1667 31.3808 32.1667 26.6667V13.3334C32.1667 8.61933 32.1667 6.26231 30.7022 4.79784C29.2378 3.33337 26.8808 3.33337 22.1667 3.33337H18.8334C14.1193 3.33337 11.7623 3.33337 10.2978 4.79784ZM14.25 28.3334C14.25 27.643 14.8097 27.0834 15.5 27.0834H20.5C21.1904 27.0834 21.75 27.643 21.75 28.3334C21.75 29.0237 21.1904 29.5834 20.5 29.5834H15.5C14.8097 29.5834 14.25 29.0237 14.25 28.3334ZM15.5 20.4167C14.8097 20.4167 14.25 20.9764 14.25 21.6667C14.25 22.3571 14.8097 22.9167 15.5 22.9167H25.5C26.1904 22.9167 26.75 22.3571 26.75 21.6667C26.75 20.9764 26.1904 20.4167 25.5 20.4167H15.5ZM14.25 15C14.25 14.3097 14.8097 13.75 15.5 13.75H25.5C26.1904 13.75 26.75 14.3097 26.75 15C26.75 15.6904 26.1904 16.25 25.5 16.25H15.5C14.8097 16.25 14.25 15.6904 14.25 15Z" fill="#FFBE4C"/>
<path opacity="0.5" d="M9.22546 6.76379C8.83337 8.23594 8.83337 10.2951 8.83337 13.3334V26.6667C8.83337 29.7051 8.83337 31.7643 9.22549 33.2364L8.83337 33.2066C7.20823 33.0467 6.11432 32.6855 5.29784 31.869C3.83337 30.4045 3.83337 28.0475 3.83337 23.3335V16.6668C3.83337 11.9527 3.83337 9.59573 5.29784 8.13126C6.11432 7.31478 7.20823 6.95351 8.83337 6.79366L9.22546 6.76379Z" fill="#FFBE4C"/>
<path opacity="0.5" d="M31.7745 33.2364C32.1667 31.7643 32.1667 29.7051 32.1667 26.6667V13.3334C32.1667 10.2951 32.1667 8.23594 31.7746 6.76379L32.1667 6.79366C33.7918 6.95351 34.8857 7.31478 35.7022 8.13126C37.1667 9.59573 37.1667 11.9527 37.1667 16.6668V23.3335C37.1667 28.0475 37.1667 30.4045 35.7022 31.869C34.8857 32.6855 33.7918 33.0467 32.1667 33.2066L31.7745 33.2364Z" fill="#FFBE4C"/>
</svg>
