<svg width="45" height="45" viewBox="0 0 45 45" fill="none" xmlns="http://www.w3.org/2000/svg">
<path d="M18.75 41.2504H26.25C33.3211 41.2504 36.8566 41.2504 39.0533 39.0537C41.25 36.857 41.25 33.3214 41.25 26.2504C41.25 19.1793 41.25 15.6438 39.0533 13.4471C38.3734 12.7672 37.5642 12.2977 36.5618 11.9736C36.5626 12.2914 36.5626 12.6165 36.5625 12.9472L36.5625 16.9936C36.5625 17.0487 36.563 17.1086 36.5636 17.173C36.5691 17.8113 36.5784 18.8812 36.12 19.8601C35.6615 20.8389 34.8337 21.5167 34.3397 21.9211C34.2904 21.9615 34.2432 22.0001 34.2012 22.0351L31.3765 24.389C29.7626 25.7341 28.3577 26.905 27.0948 27.7173C25.7334 28.5928 24.2608 29.2404 22.5 29.2404C20.7392 29.2404 19.2667 28.5928 17.9053 27.7173C16.6423 26.905 15.2374 25.7341 13.6235 24.389L10.7988 22.0351C10.7565 21.9998 10.7101 21.9619 10.6603 21.9211C10.1664 21.5167 9.33855 20.8389 8.88007 19.8601C8.4216 18.8812 8.43089 17.8113 8.43644 17.173C8.437 17.1087 8.43752 17.0487 8.43752 16.9936L8.43751 12.9472C8.43749 12.6161 8.43746 12.2911 8.43826 11.9729C7.43581 12.2971 6.62704 12.7667 5.9467 13.4471C3.75 15.6438 3.75 19.1793 3.75 26.2504C3.75 33.3214 3.75 36.857 5.9467 39.0537C8.1434 41.2504 11.6789 41.2504 18.75 41.2504Z" fill="white"/>
<path fill-rule="evenodd" clip-rule="evenodd" d="M12.5995 19.8744L15.2981 22.1233C18.7418 24.993 20.4636 26.4279 22.5002 26.4279C24.5367 26.4279 26.2585 24.993 29.7022 22.1233L32.4008 19.8744C33.0644 19.3215 33.3961 19.045 33.5731 18.6671C33.7502 18.2891 33.7502 17.8573 33.7502 16.9936V13.125C33.7502 12.5238 33.7502 11.9635 33.7467 11.4407C33.7248 8.11988 33.5634 6.30911 32.3772 5.12294C31.0043 3.75 28.7946 3.75 24.3752 3.75H20.6252C16.2057 3.75 13.996 3.75 12.6231 5.12294C11.4369 6.30911 11.2721 8.11988 11.2502 11.4407C11.2467 11.9635 11.2502 12.5238 11.2502 13.125V16.9936C11.2502 17.8573 11.2502 18.2891 11.4272 18.6671C11.6042 19.045 11.936 19.3215 12.5995 19.8744ZM17.3437 11.25C17.3437 10.4733 17.9733 9.84375 18.75 9.84375H26.25C27.0266 9.84375 27.6562 10.4733 27.6562 11.25C27.6562 12.0266 27.0266 12.6562 26.25 12.6562H18.75C17.9733 12.6562 17.3437 12.0266 17.3437 11.25ZM19.2187 16.875C19.2187 16.0983 19.8483 15.4687 20.625 15.4687H24.375C25.1516 15.4687 25.7812 16.0983 25.7812 16.875C25.7812 17.6516 25.1516 18.2812 24.375 18.2812H20.625C19.8483 18.2812 19.2187 17.6516 19.2187 16.875Z" fill="white"/>
</svg>
