<svg width="24" height="24" viewBox="0 0 24 24" fill="none" xmlns="http://www.w3.org/2000/svg">
<path fill-rule="evenodd" clip-rule="evenodd" d="M14.9851 19.5158C18.052 19.5158 19 18.5678 19 15.5009V14.1069C19 11.723 18.4284 10.6217 16.7277 10.2454V9.22769C16.7277 7.93123 16.7277 4 11.5 4C6.27231 4 6.27231 7.93123 6.27231 9.22769V10.2454C4.57156 10.6217 4 11.723 4 14.1069V15.5009C4 18.5678 4.94796 19.5158 8.01487 19.5158H14.9851ZM11.5 6.09106C8.86521 6.09106 8.36336 7.19236 8.36336 9.22768V10.092H14.6366V9.22768C14.6366 7.19236 14.1347 6.09106 11.5 6.09106ZM11.5005 16.3373C12.3474 16.3373 13.034 15.6508 13.034 14.8039C13.034 13.957 12.3474 13.2704 11.5005 13.2704C10.6536 13.2704 9.96708 13.957 9.96708 14.8039C9.96708 15.6508 10.6536 16.3373 11.5005 16.3373Z" fill="#969696"/>
</svg>
