<svg width="28" height="28" viewBox="0 0 28 28" fill="none" xmlns="http://www.w3.org/2000/svg">
<path d="M2.67188 9.07672V20.4284C2.67188 22.6451 4.24688 23.5551 6.16021 22.4584L8.90187 20.8951C9.49687 20.5567 10.4885 20.5217 11.1069 20.8367L17.2319 23.9051C17.8502 24.2084 18.8419 24.1851 19.4369 23.8467L24.4885 20.9534C25.1302 20.5801 25.6669 19.6701 25.6669 18.9234V7.57172C25.6669 5.35505 24.0919 4.44505 22.1785 5.54172L19.4369 7.10505C18.8419 7.44339 17.8502 7.47839 17.2319 7.16339L11.1069 4.10672C10.4885 3.80339 9.49687 3.82672 8.90187 4.16505L3.85021 7.05839C3.19687 7.43172 2.67188 8.34172 2.67188 9.07672Z" stroke="#ADB3BC" stroke-width="2.5" stroke-linecap="round" stroke-linejoin="round"/>
<path d="M9.98682 4.66663V19.8333" stroke="#ADB3BC" stroke-width="2.5" stroke-linecap="round" stroke-linejoin="round"/>
<path d="M18.3516 7.72327V23.3333" stroke="#ADB3BC" stroke-width="2.5" stroke-linecap="round" stroke-linejoin="round"/>
</svg>
