<svg width="32" height="32" viewBox="0 0 32 32" fill="none" xmlns="http://www.w3.org/2000/svg">
<path fill-rule="evenodd" clip-rule="evenodd" d="M29.3333 16C29.3333 23.3638 23.3638 29.3334 16 29.3334C14.4477 29.3334 12.9573 29.0681 11.5718 28.5804C10.9885 27.1691 10.6667 25.6221 10.6667 24C10.6667 21.0384 11.7395 18.3274 13.5179 16.2344C15.08 18.5086 17.6991 20 20.6667 20C23.8154 20 26.5719 18.3209 28.0896 15.8092C28.4087 15.2812 29.3333 15.3831 29.3333 16Z" fill="#2F2F2F"/>
<path d="M2.66666 15.9998C2.66666 21.8113 6.38468 26.7544 11.5718 28.5802C10.9885 27.1688 10.6667 25.6219 10.6667 23.9998C10.6667 21.0382 11.7395 18.3272 13.5179 16.2342C12.5603 14.8402 12 13.1521 12 11.3332C12 8.18444 13.6792 5.42791 16.1909 3.91018C16.7189 3.59113 16.6169 2.6665 16 2.6665C8.63619 2.6665 2.66666 8.63604 2.66666 15.9998Z" fill="#2F2F2F"/>
</svg>
