<svg width="17" height="17" viewBox="0 0 17 17" fill="none" xmlns="http://www.w3.org/2000/svg">
<path d="M9.9165 13.4583C9.9165 14.2375 9.279 14.875 8.49984 14.875C7.72067 14.875 7.08317 14.2375 7.08317 13.4583C7.08317 12.6792 7.72067 12.0417 8.49984 12.0417C9.279 12.0417 9.9165 12.6792 9.9165 13.4583Z" fill="#2F2F2F"/>
<path d="M9.9165 3.54171C9.9165 4.32087 9.279 4.95837 8.49984 4.95837C7.72067 4.95837 7.08317 4.32087 7.08317 3.54171C7.08317 2.76254 7.72067 2.12504 8.49984 2.12504C9.279 2.12504 9.9165 2.76254 9.9165 3.54171Z" fill="#2F2F2F"/>
<path d="M9.9165 8.49996C9.9165 9.27913 9.279 9.91663 8.49984 9.91663C7.72067 9.91663 7.08317 9.27913 7.08317 8.49996C7.08317 7.72079 7.72067 7.08329 8.49984 7.08329C9.279 7.08329 9.9165 7.72079 9.9165 8.49996Z" fill="#2F2F2F"/>
</svg>
