<svg width="24" height="24" viewBox="0 0 24 24" fill="none" xmlns="http://www.w3.org/2000/svg">
<path d="M20.19 14.0601L19.06 12.1801C18.81 11.7701 18.59 10.9801 18.59 10.5001V8.63011C18.59 5.00011 15.64 2.05011 12.02 2.05011C8.39002 2.06011 5.44002 5.00011 5.44002 8.63011V10.4901C5.44002 10.9701 5.22002 11.7601 4.98002 12.1701L3.85002 14.0501C3.42002 14.7801 3.32002 15.6101 3.59002 16.3301C3.86002 17.0601 4.47002 17.6401 5.27002 17.9001C6.35002 18.2601 7.44002 18.5201 8.55002 18.7101C8.66002 18.7301 8.77002 18.7401 8.88002 18.7601C9.02002 18.7801 9.17002 18.8001 9.32002 18.8201C9.58002 18.8601 9.84002 18.8901 10.11 18.9101C10.74 18.9701 11.38 19.0001 12.02 19.0001C12.65 19.0001 13.28 18.9701 13.9 18.9101C14.13 18.8901 14.36 18.8701 14.58 18.8401C14.76 18.8201 14.94 18.8001 15.12 18.7701C15.23 18.7601 15.34 18.7401 15.45 18.7201C16.57 18.5401 17.68 18.2601 18.76 17.9001C19.53 17.6401 20.12 17.0601 20.4 16.3201C20.68 15.5701 20.6 14.7501 20.19 14.0601ZM12.75 10.0001C12.75 10.4201 12.41 10.7601 11.99 10.7601C11.57 10.7601 11.23 10.4201 11.23 10.0001V6.90011C11.23 6.48011 11.57 6.14011 11.99 6.14011C12.41 6.14011 12.75 6.48011 12.75 6.90011V10.0001Z" fill="white"/>
<path d="M14.83 20.0101C14.41 21.1701 13.3 22.0001 12 22.0001C11.21 22.0001 10.43 21.6801 9.87999 21.1101C9.55999 20.8101 9.31999 20.4101 9.17999 20.0001C9.30999 20.0201 9.43999 20.0301 9.57999 20.0501C9.80999 20.0801 10.05 20.1101 10.29 20.1301C10.86 20.1801 11.44 20.2101 12.02 20.2101C12.59 20.2101 13.16 20.1801 13.72 20.1301C13.93 20.1101 14.14 20.1001 14.34 20.0701C14.5 20.0501 14.66 20.0301 14.83 20.0101Z" fill="white"/>
</svg>
