<svg width="40" height="40" viewBox="0 0 40 40" fill="none" xmlns="http://www.w3.org/2000/svg">
<path d="M20 7.91691C19.8333 7.91691 19.6667 7.90025 19.5167 7.86691C19.35 7.83358 19.2 7.78358 19.05 7.73358C18.9 7.66691 18.75 7.58358 18.6166 7.50024C18.4833 7.40024 18.35 7.30024 18.2333 7.18357C17.7667 6.71691 17.5 6.08358 17.5 5.41691C17.5 4.75024 17.7667 4.11691 18.2333 3.65025C18.35 3.53358 18.4833 3.43358 18.6166 3.33358C18.75 3.25024 18.9 3.1669 19.05 3.1169C19.2 3.05024 19.35 3.00024 19.5167 2.96691C20.3167 2.80024 21.1833 3.06691 21.7667 3.65025C22.2333 4.11691 22.5 4.75024 22.5 5.41691C22.5 6.08358 22.2333 6.71691 21.7667 7.18357C21.3 7.65024 20.65 7.91691 20 7.91691Z" fill="white"/>
<path d="M20 15.416C19.8333 15.416 19.6667 15.3994 19.5167 15.366C19.35 15.3327 19.2 15.2827 19.05 15.2327C18.9 15.166 18.75 15.0827 18.6166 14.9994C18.4833 14.8994 18.35 14.7993 18.2333 14.6827C17.7667 14.216 17.5 13.5827 17.5 12.916C17.5 12.2494 17.7667 11.616 18.2333 11.1494C18.35 11.0327 18.4833 10.9327 18.6166 10.8327C18.75 10.7494 18.9 10.666 19.05 10.616C19.2 10.5493 19.35 10.4993 19.5167 10.466C19.8334 10.3993 20.1666 10.3993 20.4833 10.466C20.65 10.4993 20.8 10.5493 20.95 10.616C21.1 10.666 21.25 10.7494 21.3834 10.8327C21.5167 10.9327 21.65 11.0327 21.7667 11.1494C22.2333 11.616 22.5 12.2494 22.5 12.916C22.5 13.5827 22.2333 14.216 21.7667 14.6827C21.65 14.7993 21.5167 14.8994 21.3834 14.9994C21.25 15.0827 21.1 15.166 20.95 15.2327C20.8 15.2827 20.65 15.3327 20.4833 15.366C20.3333 15.3994 20.1667 15.416 20 15.416Z" fill="white"/>
<path d="M20 22.0829C19.8333 22.0829 19.6667 22.0663 19.5167 22.0329C19.35 21.9996 19.2 21.9496 19.05 21.8996C18.9 21.8329 18.75 21.7496 18.6166 21.6663C18.4833 21.5663 18.35 21.4663 18.2333 21.3496C18.1167 21.2329 18.0167 21.1163 17.9167 20.9663C17.8333 20.8329 17.75 20.6829 17.6833 20.5329C17.6333 20.3829 17.5834 20.2329 17.55 20.0662C17.5167 19.9162 17.5 19.7496 17.5 19.5829C17.5 18.9163 17.7667 18.2829 18.2333 17.8163C18.35 17.6996 18.4833 17.5996 18.6166 17.4996C18.75 17.4163 18.9 17.3329 19.05 17.2663C19.2 17.2163 19.35 17.1663 19.5167 17.1329C20.3167 16.9663 21.1833 17.2329 21.7667 17.8163C22.2333 18.2829 22.5 18.9163 22.5 19.5829C22.5 19.7496 22.4833 19.9162 22.45 20.0662C22.4166 20.2329 22.3667 20.3829 22.3 20.5329C22.25 20.6829 22.1667 20.8329 22.0833 20.9663C21.9833 21.1163 21.8833 21.2329 21.7667 21.3496C21.65 21.4663 21.5167 21.5663 21.3834 21.6663C21.25 21.7496 21.1 21.8329 20.95 21.8996C20.8 21.9496 20.65 21.9996 20.4833 22.0329C20.3333 22.0663 20.1667 22.0829 20 22.0829Z" fill="white"/>
<path d="M20.0002 27.9163C19.5668 27.9163 19.1335 27.733 18.8168 27.433C18.5168 27.1164 18.3335 26.683 18.3335 26.2497C18.3335 25.8163 18.5168 25.383 18.8168 25.0663C19.2001 24.683 19.7835 24.5164 20.3168 24.6164C20.4335 24.633 20.5335 24.6664 20.6335 24.7164C20.7335 24.7497 20.8335 24.7997 20.9168 24.8663C21.0168 24.933 21.1002 24.9997 21.1835 25.0663C21.4835 25.383 21.6668 25.8163 21.6668 26.2497C21.6668 26.683 21.4835 27.1164 21.1835 27.433C21.1002 27.4997 21.0168 27.5664 20.9168 27.633C20.8335 27.6997 20.7335 27.7497 20.6335 27.783C20.5335 27.833 20.4335 27.8663 20.3168 27.883C20.2168 27.8997 20.1002 27.9163 20.0002 27.9163Z" fill="white"/>
<path d="M20 33.334C19.8333 33.334 19.6667 33.3007 19.5167 33.234C19.3667 33.1673 19.2333 33.084 19.1166 32.9673C19 32.8507 18.9 32.7173 18.85 32.5673C18.7833 32.4173 18.75 32.2507 18.75 32.084C18.75 31.7507 18.8833 31.434 19.1166 31.2007C19.2333 31.084 19.3667 31.0007 19.5167 30.934C19.8334 30.8007 20.1666 30.8007 20.4833 30.934C20.6333 31.0007 20.7667 31.084 20.8834 31.2007C21 31.3173 21.0833 31.4507 21.15 31.6007C21.2167 31.7507 21.25 31.9173 21.25 32.084C21.25 32.2507 21.2167 32.4173 21.15 32.5673C21.0833 32.7173 21 32.8507 20.8834 32.9673C20.7667 33.084 20.6333 33.1673 20.4833 33.234C20.3166 33.3007 20.1667 33.334 20 33.334Z" fill="white"/>
<path d="M19.9998 36.7831C19.7832 36.7831 19.5665 36.6997 19.4165 36.5331C19.2499 36.3831 19.1665 36.1664 19.1665 35.9497C19.1665 35.7331 19.2499 35.5164 19.4165 35.3664C19.7165 35.0497 20.2831 35.0497 20.5831 35.3664C20.7498 35.5164 20.8332 35.7331 20.8332 35.9497C20.8332 36.1664 20.7498 36.3831 20.5831 36.5331C20.4331 36.6997 20.2165 36.7831 19.9998 36.7831Z" fill="white"/>
<path d="M5.8335 15.4159C5.16683 15.4159 4.5335 15.1492 4.06683 14.6825C3.60017 14.2159 3.3335 13.5825 3.3335 12.9159C3.3335 12.2659 3.60017 11.6159 4.06683 11.1492C4.9835 10.2159 6.66683 10.2159 7.60016 11.1492C8.06683 11.6159 8.3335 12.2659 8.3335 12.9159C8.3335 13.5825 8.06683 14.2159 7.60016 14.6825C7.48349 14.7992 7.35019 14.8992 7.21686 14.9992C7.08352 15.0825 6.93351 15.1659 6.78351 15.2159C6.63351 15.2826 6.48346 15.3326 6.31679 15.3659C6.16679 15.3992 6.00016 15.4159 5.8335 15.4159Z" fill="white"/>
<path d="M34.1665 15.416C33.5165 15.416 32.8665 15.1493 32.3998 14.6827C31.9332 14.216 31.6665 13.566 31.6665 12.916C31.6665 12.7494 31.6832 12.5827 31.7166 12.4327C31.7499 12.266 31.7998 12.116 31.8498 11.966C31.9165 11.816 31.9998 11.666 32.0832 11.5327C32.1832 11.3993 32.2832 11.266 32.3998 11.1494C32.5165 11.0327 32.6498 10.9327 32.7831 10.8327C32.9165 10.7494 33.0665 10.666 33.2165 10.616C33.3665 10.5493 33.5165 10.4993 33.6832 10.466C33.9999 10.3993 34.3331 10.3993 34.6498 10.466C34.8165 10.4993 34.9665 10.5493 35.1165 10.616C35.2665 10.666 35.4165 10.7494 35.5499 10.8327C35.6832 10.9327 35.8165 11.0327 35.9332 11.1494C36.0498 11.266 36.1498 11.3993 36.2498 11.5327C36.3332 11.666 36.4165 11.816 36.4665 11.966C36.5332 12.116 36.5831 12.266 36.6165 12.4327C36.6498 12.5827 36.6665 12.7494 36.6665 12.916C36.6665 13.5827 36.3998 14.216 35.9332 14.6827C35.8165 14.7993 35.6832 14.8994 35.5499 14.9994C35.4165 15.0827 35.2665 15.166 35.1165 15.2327C34.9665 15.2827 34.8165 15.3327 34.6498 15.366C34.4831 15.3994 34.3332 15.416 34.1665 15.416Z" fill="white"/>
<path d="M34.1667 21.2496C34.0667 21.2496 33.95 21.2329 33.85 21.2163C33.7333 21.1996 33.6333 21.1663 33.5333 21.1163C33.4333 21.0829 33.3333 21.0329 33.2333 20.9663C33.15 20.9163 33.0666 20.8329 32.9833 20.7663C32.9166 20.6829 32.8333 20.5996 32.7833 20.5163C32.7166 20.4163 32.6667 20.3163 32.6334 20.2163C32.5834 20.1163 32.55 20.0163 32.5334 19.9163C32.5167 19.7996 32.5 19.6996 32.5 19.5829C32.5 19.1496 32.6833 18.7163 32.9833 18.3996C33.0666 18.3329 33.15 18.2663 33.2333 18.1996C33.3333 18.1329 33.4333 18.0829 33.5333 18.0496C33.6333 17.9996 33.7333 17.9663 33.85 17.9496C34.05 17.8996 34.2667 17.8996 34.4833 17.9496C34.6 17.9663 34.7 17.9996 34.8 18.0496C34.9 18.0829 35 18.1329 35.0833 18.1996C35.1833 18.2663 35.2667 18.3329 35.35 18.3996C35.65 18.7163 35.8333 19.1496 35.8333 19.5829C35.8333 19.6996 35.8166 19.7996 35.8 19.9163C35.7833 20.0163 35.75 20.1163 35.7 20.2163C35.6666 20.3163 35.6167 20.4163 35.55 20.5163C35.4834 20.5996 35.4167 20.6829 35.35 20.7663C35.2667 20.8329 35.1833 20.9163 35.0833 20.9663C35 21.0329 34.9 21.0829 34.8 21.1163C34.7 21.1663 34.6 21.1996 34.4833 21.2163C34.3833 21.2329 34.2667 21.2496 34.1667 21.2496Z" fill="white"/>
<path d="M5.83317 21.2495C5.39984 21.2495 4.96647 21.0661 4.6498 20.7661C4.3498 20.4495 4.1665 20.0161 4.1665 19.5828C4.1665 19.1495 4.3498 18.7161 4.6498 18.3994C5.11647 17.9328 5.84985 17.7828 6.46651 18.0495C6.68318 18.1328 6.84987 18.2494 7.01654 18.3994C7.31654 18.7161 7.49984 19.1495 7.49984 19.5828C7.49984 20.0161 7.31654 20.4495 7.01654 20.7661C6.69987 21.0661 6.2665 21.2495 5.83317 21.2495Z" fill="white"/>
<path d="M34.1665 25.8335C33.8332 25.8335 33.5165 25.7001 33.2831 25.4668C33.0498 25.2335 32.9165 24.9168 32.9165 24.5835C32.9165 24.4168 32.9498 24.2668 33.0165 24.1002C33.0832 23.9502 33.1665 23.8168 33.2831 23.7001C33.6331 23.3501 34.1831 23.2335 34.6498 23.4335C34.7998 23.5001 34.9332 23.5835 35.0499 23.7001C35.1666 23.8168 35.2498 23.9502 35.3165 24.1002C35.3832 24.2668 35.4165 24.4168 35.4165 24.5835C35.4165 24.9168 35.2832 25.2335 35.0499 25.4668C34.9332 25.5835 34.7998 25.6668 34.6498 25.7335C34.4831 25.8002 34.3332 25.8335 34.1665 25.8335Z" fill="white"/>
<path d="M5.8335 25.8329C5.50016 25.8329 5.18345 25.6996 4.95011 25.4663C4.83345 25.3496 4.73349 25.2163 4.68349 25.0663C4.61683 24.9163 4.5835 24.7496 4.5835 24.5829C4.5835 24.4163 4.61683 24.2663 4.68349 24.0996C4.73349 23.9496 4.83345 23.8163 4.95011 23.6996C5.40011 23.2329 6.25021 23.2329 6.71688 23.6996C6.83354 23.8163 6.91683 23.9496 6.9835 24.0996C7.05017 24.2663 7.0835 24.4163 7.0835 24.5829C7.0835 24.7496 7.05017 24.9163 6.9835 25.0663C6.91683 25.2163 6.83354 25.3496 6.71688 25.4663C6.48354 25.6996 6.16683 25.8329 5.8335 25.8329Z" fill="white"/>
<path d="M34.1668 29.9999C34.0502 29.9999 33.9502 29.9832 33.8502 29.9332C33.7502 29.8999 33.6502 29.8332 33.5835 29.7499C33.4169 29.5999 33.3335 29.3832 33.3335 29.1665C33.3335 28.9499 33.4169 28.7332 33.5835 28.5832C33.8835 28.2665 34.4501 28.2665 34.7501 28.5832C34.9168 28.7332 35.0002 28.9499 35.0002 29.1665C35.0002 29.3832 34.9168 29.5999 34.7501 29.7499C34.6001 29.9166 34.3835 29.9999 34.1668 29.9999Z" fill="white"/>
<path d="M5.83333 29.9999C5.61667 29.9999 5.40004 29.9166 5.25004 29.7499C5.08337 29.5999 5 29.3832 5 29.1665C5 28.9499 5.08337 28.7332 5.25004 28.5832C5.55004 28.2665 6.11663 28.2665 6.41663 28.5832C6.58329 28.7332 6.66667 28.9499 6.66667 29.1665C6.66667 29.3832 6.58329 29.5999 6.41663 29.7499C6.26663 29.9166 6.05 29.9999 5.83333 29.9999Z" fill="white"/>
<path d="M12.9165 11.6659C12.7498 11.6659 12.5832 11.6492 12.4332 11.6159C12.2665 11.5826 12.1165 11.5326 11.9665 11.4659C11.7998 11.4159 11.6665 11.3325 11.5331 11.2492C11.3831 11.1492 11.2665 11.0492 11.1498 10.9325C10.6832 10.4659 10.4165 9.81588 10.4165 9.16588C10.4165 8.51588 10.6832 7.86589 11.1498 7.39922C12.0832 6.46589 13.7498 6.46589 14.6832 7.39922C15.1498 7.86589 15.4165 8.49921 15.4165 9.16588C15.4165 9.83255 15.1498 10.4659 14.6832 10.9325C14.5665 11.0492 14.4332 11.1492 14.2999 11.2492C14.1665 11.3325 14.0165 11.4159 13.8665 11.4659C13.7165 11.5326 13.5665 11.5826 13.3998 11.6159C13.2498 11.6492 13.0832 11.6659 12.9165 11.6659Z" fill="white"/>
<path d="M27.0835 11.666C26.9168 11.666 26.7502 11.6494 26.6002 11.616C26.4335 11.5827 26.2835 11.5327 26.1335 11.466C25.9835 11.416 25.8335 11.3327 25.7001 11.2494C25.5668 11.1494 25.4335 11.0493 25.3168 10.9327C25.2002 10.816 25.1002 10.6827 25.0002 10.5494C24.9168 10.416 24.8335 10.266 24.7668 10.116C24.7168 9.96603 24.6669 9.81601 24.6335 9.64934C24.6002 9.49934 24.5835 9.33268 24.5835 9.16602C24.5835 8.51602 24.8502 7.86602 25.3168 7.39936C25.4335 7.28269 25.5668 7.18268 25.7001 7.08268C25.8335 6.99935 25.9835 6.91601 26.1335 6.86601C26.2835 6.79934 26.4335 6.74935 26.6002 6.71602C26.9169 6.64935 27.2501 6.64935 27.5668 6.71602C27.7335 6.74935 27.8835 6.79934 28.0335 6.86601C28.1835 6.91601 28.3335 6.99935 28.4669 7.08268C28.6002 7.18268 28.7335 7.28269 28.8502 7.39936C29.3168 7.86602 29.5835 8.51602 29.5835 9.16602C29.5835 9.33268 29.5668 9.49934 29.5334 9.64934C29.5001 9.81601 29.4502 9.96603 29.4002 10.116C29.3335 10.266 29.2502 10.416 29.1668 10.5494C29.0668 10.6827 28.9668 10.816 28.8502 10.9327C28.7335 11.0493 28.6002 11.1494 28.4669 11.2494C28.3335 11.3327 28.1835 11.416 28.0335 11.466C27.8835 11.5327 27.7335 11.5827 27.5668 11.616C27.4168 11.6494 27.2502 11.666 27.0835 11.666Z" fill="white"/>
<path d="M12.9165 18.7499C12.7498 18.7499 12.5832 18.7332 12.4332 18.6999C12.2665 18.6665 12.1165 18.6165 11.9665 18.5665C11.8165 18.4999 11.6665 18.4165 11.5331 18.3332C11.3831 18.2332 11.2665 18.1332 11.1498 18.0165C10.6832 17.5499 10.4165 16.8999 10.4165 16.2499C10.4165 15.5832 10.6832 14.9499 11.1498 14.4832C12.0832 13.5499 13.7498 13.5499 14.6832 14.4832C15.1498 14.9499 15.4165 15.5832 15.4165 16.2499C15.4165 16.9165 15.1498 17.5499 14.6832 18.0165C14.2165 18.4832 13.5665 18.7499 12.9165 18.7499Z" fill="white"/>
<path d="M27.0835 18.75C26.9168 18.75 26.7502 18.7333 26.6002 18.7C26.4335 18.6667 26.2835 18.6167 26.1335 18.55C25.9835 18.5 25.8335 18.4167 25.7001 18.3333C25.5668 18.2333 25.4335 18.1333 25.3168 18.0167C25.2002 17.9 25.1002 17.7667 25.0002 17.6333C24.9168 17.5 24.8335 17.35 24.7668 17.2C24.7168 17.05 24.6669 16.9 24.6335 16.7333C24.6002 16.5833 24.5835 16.4167 24.5835 16.25C24.5835 15.6 24.8502 14.95 25.3168 14.4833C25.4335 14.3667 25.5668 14.2667 25.7001 14.1667C25.8335 14.0833 25.9835 14 26.1335 13.95C26.2835 13.8833 26.4335 13.8333 26.6002 13.8C26.9169 13.7333 27.2501 13.7333 27.5668 13.8C27.7335 13.8333 27.8835 13.8833 28.0335 13.95C28.1835 14 28.3335 14.0833 28.4669 14.1667C28.6002 14.2667 28.7335 14.3667 28.8502 14.4833C29.3168 14.95 29.5835 15.6 29.5835 16.25C29.5835 16.4167 29.5668 16.5833 29.5334 16.7333C29.5001 16.9 29.4502 17.05 29.4002 17.2C29.3335 17.35 29.2502 17.5 29.1668 17.6333C29.0668 17.7667 28.9668 17.9 28.8502 18.0167C28.7335 18.1333 28.6002 18.2333 28.4669 18.3333C28.3335 18.4167 28.1835 18.5 28.0335 18.55C27.8835 18.6167 27.7335 18.6667 27.5668 18.7C27.4168 18.7333 27.2502 18.75 27.0835 18.75Z" fill="white"/>
<path d="M12.9167 24.584C12.7 24.584 12.4833 24.534 12.2833 24.4507C12.0667 24.3673 11.8833 24.2507 11.7333 24.1007C11.5833 23.934 11.4667 23.7507 11.3834 23.5507C11.3 23.3507 11.25 23.134 11.25 22.9173C11.25 22.484 11.4333 22.0507 11.7333 21.734C12.35 21.1173 13.4834 21.1173 14.1 21.734C14.4 22.0507 14.5833 22.484 14.5833 22.9173C14.5833 23.134 14.5333 23.3507 14.45 23.5507C14.3666 23.7507 14.25 23.934 14.1 24.1007C13.7834 24.4007 13.35 24.584 12.9167 24.584Z" fill="white"/>
<path d="M27.0832 24.584C26.6498 24.584 26.2165 24.4007 25.8998 24.1007C25.5998 23.784 25.4165 23.3507 25.4165 22.9173C25.4165 22.484 25.5998 22.0507 25.8998 21.734C26.5165 21.1173 27.6332 21.1173 28.2665 21.734C28.5665 22.0507 28.7498 22.484 28.7498 22.9173C28.7498 23.034 28.7331 23.134 28.7165 23.2507C28.6998 23.3507 28.6665 23.4507 28.6165 23.5507C28.5831 23.6507 28.5332 23.7507 28.4665 23.834C28.3999 23.934 28.3332 24.0173 28.2665 24.1007C27.9499 24.4007 27.5165 24.584 27.0832 24.584Z" fill="white"/>
<path d="M12.9165 29.584C12.5832 29.584 12.2665 29.4507 12.0331 29.2173C11.9165 29.1007 11.8332 28.9673 11.7665 28.8173C11.6998 28.6673 11.6665 28.5007 11.6665 28.334C11.6665 28.1673 11.6998 28.0173 11.7665 27.8507C11.8332 27.7007 11.9165 27.5673 12.0331 27.4507C12.1498 27.334 12.2832 27.2507 12.4332 27.184C12.7332 27.0507 13.0831 27.0507 13.3998 27.184C13.5498 27.2507 13.6832 27.334 13.7999 27.4507C14.0332 27.684 14.1665 28.0007 14.1665 28.334C14.1665 28.5007 14.1332 28.6673 14.0665 28.8173C13.9998 28.9673 13.9166 29.1007 13.7999 29.2173C13.5666 29.4507 13.2498 29.584 12.9165 29.584Z" fill="white"/>
<path d="M27.0835 29.584C26.9168 29.584 26.7502 29.5507 26.6002 29.484C26.4502 29.4173 26.3168 29.334 26.2001 29.2173C26.0834 29.1007 25.9835 28.9673 25.9335 28.8173C25.8668 28.6673 25.8335 28.5007 25.8335 28.334C25.8335 28.1673 25.8668 28.0007 25.9335 27.8507C26.0002 27.7007 26.0834 27.5673 26.2001 27.4507C26.3168 27.334 26.4502 27.2507 26.6002 27.184C26.9002 27.0507 27.2501 27.0507 27.5668 27.184C27.7168 27.2507 27.8502 27.334 27.9669 27.4507C28.0835 27.5673 28.1668 27.7007 28.2335 27.8507C28.3002 28.0007 28.3335 28.1673 28.3335 28.334C28.3335 28.5007 28.3002 28.6673 28.2335 28.8173C28.1668 28.9673 28.0835 29.1007 27.9669 29.2173C27.7335 29.4507 27.4168 29.584 27.0835 29.584Z" fill="white"/>
<path d="M12.9168 33.3339C12.7002 33.3339 12.4835 33.2505 12.3335 33.0839C12.1669 32.9339 12.0835 32.7172 12.0835 32.5005C12.0835 32.2839 12.1669 32.0672 12.3335 31.9172C12.6335 31.6005 13.2001 31.6005 13.5001 31.9172C13.6668 32.0672 13.7502 32.2839 13.7502 32.5005C13.7502 32.7172 13.6668 32.9339 13.5001 33.0839C13.3501 33.2505 13.1335 33.3339 12.9168 33.3339Z" fill="white"/>
<path d="M27.0833 33.3339C26.9667 33.3339 26.8667 33.3172 26.7667 33.2672C26.6667 33.2339 26.5667 33.1672 26.5 33.0839C26.4167 33.0172 26.35 32.9172 26.3166 32.8172C26.2666 32.7172 26.25 32.6172 26.25 32.5005C26.25 32.2839 26.3334 32.0672 26.5 31.9172C26.8 31.6005 27.3666 31.6005 27.6666 31.9172C27.8333 32.0672 27.9167 32.2839 27.9167 32.5005C27.9167 32.6172 27.9 32.7172 27.85 32.8172C27.8167 32.9172 27.75 33.0172 27.6666 33.0839C27.5166 33.2505 27.3 33.3339 27.0833 33.3339Z" fill="white"/>
</svg>
