<svg width="28" height="28" viewBox="0 0 28 28" fill="none" xmlns="http://www.w3.org/2000/svg">
<path d="M2.33334 11.3752C1.85501 11.3752 1.45834 10.9785 1.45834 10.5002V7.5835C1.45834 4.20016 4.21168 1.4585 7.58334 1.4585H10.5C10.9783 1.4585 11.375 1.85516 11.375 2.3335C11.375 2.81183 10.9783 3.2085 10.5 3.2085H7.58334C5.16834 3.2085 3.20834 5.1685 3.20834 7.5835V10.5002C3.20834 10.9785 2.81168 11.3752 2.33334 11.3752Z" fill="#ED230D"/>
<path d="M25.6667 11.3752C25.1883 11.3752 24.7917 10.9785 24.7917 10.5002V7.5835C24.7917 5.1685 22.8317 3.2085 20.4167 3.2085H17.5C17.0217 3.2085 16.625 2.81183 16.625 2.3335C16.625 1.85516 17.0217 1.4585 17.5 1.4585H20.4167C23.7883 1.4585 26.5417 4.20016 26.5417 7.5835V10.5002C26.5417 10.9785 26.145 11.3752 25.6667 11.3752Z" fill="#ED230D"/>
<path d="M20.4167 26.5415H18.6667C18.1883 26.5415 17.7917 26.1448 17.7917 25.6665C17.7917 25.1882 18.1883 24.7915 18.6667 24.7915H20.4167C22.8317 24.7915 24.7917 22.8315 24.7917 20.4165V18.6665C24.7917 18.1882 25.1883 17.7915 25.6667 17.7915C26.145 17.7915 26.5417 18.1882 26.5417 18.6665V20.4165C26.5417 23.7998 23.7883 26.5415 20.4167 26.5415Z" fill="#ED230D"/>
<path d="M10.5 26.5417H7.58334C4.21168 26.5417 1.45834 23.8 1.45834 20.4167V17.5C1.45834 17.0217 1.85501 16.625 2.33334 16.625C2.81168 16.625 3.20834 17.0217 3.20834 17.5V20.4167C3.20834 22.8317 5.16834 24.7917 7.58334 24.7917H10.5C10.9783 24.7917 11.375 25.1883 11.375 25.6667C11.375 26.145 10.9783 26.5417 10.5 26.5417Z" fill="#ED230D"/>
<path d="M10.5 6.125H8.16667C6.83667 6.125 6.125 6.825 6.125 8.16667V10.5C6.125 11.8417 6.83667 12.5417 8.16667 12.5417H10.5C11.83 12.5417 12.5417 11.8417 12.5417 10.5V8.16667C12.5417 6.825 11.83 6.125 10.5 6.125Z" fill="#ED230D"/>
<path d="M19.8333 6.125H17.5C16.17 6.125 15.4583 6.825 15.4583 8.16667V10.5C15.4583 11.8417 16.17 12.5417 17.5 12.5417H19.8333C21.1633 12.5417 21.875 11.8417 21.875 10.5V8.16667C21.875 6.825 21.1633 6.125 19.8333 6.125Z" fill="#ED230D"/>
<path d="M10.5 15.4585H8.16667C6.83667 15.4585 6.125 16.1585 6.125 17.5002V19.8335C6.125 21.1752 6.83667 21.8752 8.16667 21.8752H10.5C11.83 21.8752 12.5417 21.1752 12.5417 19.8335V17.5002C12.5417 16.1585 11.83 15.4585 10.5 15.4585Z" fill="#ED230D"/>
<path d="M19.8333 15.4585H17.5C16.17 15.4585 15.4583 16.1585 15.4583 17.5002V19.8335C15.4583 21.1752 16.17 21.8752 17.5 21.8752H19.8333C21.1633 21.8752 21.875 21.1752 21.875 19.8335V17.5002C21.875 16.1585 21.1633 15.4585 19.8333 15.4585Z" fill="#ED230D"/>
</svg>
