<svg width="22" height="22" viewBox="0 0 22 22" fill="none" xmlns="http://www.w3.org/2000/svg">
<path d="M5.7074 4.21469C6.11464 3.94258 6.54223 3.70658 6.98528 3.50817C8.24196 2.94538 8.8703 2.66399 9.70622 3.20555C10.5421 3.74711 10.5421 4.63548 10.5421 6.41221V7.78625C10.5421 9.51354 10.5421 10.3772 11.0787 10.9138C11.6153 11.4504 12.479 11.4504 14.2063 11.4504H15.5803C17.357 11.4504 18.2454 11.4504 18.787 12.2863C19.3285 13.1222 19.0471 13.7506 18.4843 15.0072C18.2859 15.4503 18.0499 15.8779 17.7778 16.2851C16.8216 17.7162 15.4625 18.8316 13.8724 19.4902C12.2822 20.1489 10.5325 20.3212 8.84441 19.9855C7.15633 19.6497 5.60573 18.8209 4.38869 17.6038C3.17165 16.3868 2.34284 14.8362 2.00706 13.1481C1.67128 11.46 1.84361 9.71029 2.50227 8.12015C3.16093 6.53002 4.27632 5.17091 5.7074 4.21469Z" fill="#ACACAC" fill-opacity="0.8"/>
<path d="M19.6528 6.47545C18.9092 4.5878 17.4046 3.08319 15.5169 2.33955C14.1048 1.78326 12.832 3.06247 12.832 4.58019V8.24432C12.832 8.75023 13.2422 9.16035 13.7481 9.16035H17.4122C18.9299 9.16035 20.2091 7.88756 19.6528 6.47545Z" fill="#ACACAC" fill-opacity="0.8"/>
</svg>
