<svg width="50" height="50" viewBox="0 0 50 50" fill="none" xmlns="http://www.w3.org/2000/svg">
<g opacity="0.5">
<path d="M23.243 42.3192C33.7785 42.3192 42.3193 33.7785 42.3193 23.2429C42.3193 12.7074 33.7785 4.16663 23.243 4.16663C12.7074 4.16663 4.16669 12.7074 4.16669 23.2429C4.16669 33.7785 12.7074 42.3192 23.243 42.3192Z" fill="#2AD9B6"/>
</g>
<path fill-rule="evenodd" clip-rule="evenodd" d="M23.2426 16.7175C24.0743 16.7175 24.7486 17.3918 24.7486 18.2236V21.7376H28.2627C29.0944 21.7376 29.7687 22.4119 29.7687 23.2436C29.7687 24.0754 29.0944 24.7497 28.2627 24.7497H24.7486V28.2637C24.7486 29.0955 24.0743 29.7697 23.2426 29.7697C22.4108 29.7697 21.7366 29.0955 21.7366 28.2637V24.7497H18.2225C17.3908 24.7497 16.7165 24.0754 16.7165 23.2436C16.7165 22.4119 17.3908 21.7376 18.2225 21.7376H21.7366V18.2236C21.7366 17.3918 22.4108 16.7175 23.2426 16.7175Z" fill="#2AD9B6"/>
<path d="M35.6252 37.7551L43.2633 45.3932C43.8515 45.9814 44.805 45.9814 45.3932 45.3932C45.9813 44.8051 45.9813 43.8515 45.3932 43.2634L37.755 35.6252C37.1021 36.3898 36.3897 37.1021 35.6252 37.7551Z" fill="#2AD9B6"/>
</svg>
