<svg width="32" height="32" viewBox="0 0 32 32" fill="none" xmlns="http://www.w3.org/2000/svg">
<path fill-rule="evenodd" clip-rule="evenodd" d="M16.5703 2.66675C15.0852 2.66675 13.7327 3.46769 11.0278 5.06957L10.1129 5.61136C7.40792 7.21324 6.05544 8.01418 5.31287 9.33342C4.57031 10.6527 4.57031 12.2545 4.57031 15.4583V16.5419C4.57031 19.7456 4.57031 21.3475 5.31287 22.6667C6.05544 23.986 7.40792 24.7869 10.1129 26.3888L11.0278 26.9306C13.7327 28.5325 15.0852 29.3334 16.5703 29.3334C18.0554 29.3334 19.4079 28.5325 22.1129 26.9306L23.0277 26.3888C25.7327 24.7869 27.0852 23.986 27.8277 22.6667C28.5703 21.3475 28.5703 19.7456 28.5703 16.5419V15.4583C28.5703 12.2545 28.5703 10.6527 27.8277 9.33342C27.0852 8.01418 25.7327 7.21324 23.0277 5.61136L22.1129 5.06957C19.4079 3.46769 18.0554 2.66675 16.5703 2.66675Z" fill="url(#paint0_linear_282_6184)"/>
<path d="M16.5703 11C13.8089 11 11.5703 13.2386 11.5703 16C11.5703 18.7614 13.8089 21 16.5703 21C19.3317 21 21.5703 18.7614 21.5703 16C21.5703 13.2386 19.3317 11 16.5703 11Z" fill="#2F2F2F"/>
<defs>
<linearGradient id="paint0_linear_282_6184" x1="28.4814" y1="29.2347" x2="-2.1217" y2="2.04496" gradientUnits="userSpaceOnUse">
<stop offset="0.356985" stop-color="#CC313D"/>
<stop offset="1" stop-color="#F7C5CC"/>
</linearGradient>
</defs>
</svg>
