<svg width="164" height="164" viewBox="0 0 164 164" fill="none" xmlns="http://www.w3.org/2000/svg">
<path d="M82 164C127.287 164 164 127.287 164 82C164 36.7127 127.287 0 82 0C36.7127 0 0 36.7127 0 82C0 127.287 36.7127 164 82 164Z" fill="url(#paint0_linear_196_4533)"/>
<path d="M129.738 3.20445C130.24 1.84738 132.159 1.84738 132.662 3.20445L135.582 11.0968C135.74 11.5234 136.076 11.8598 136.503 12.0177L144.395 14.9381C145.752 15.4403 145.752 17.3597 144.395 17.8618L136.503 20.7823C136.076 20.9401 135.74 21.2765 135.582 21.7032L132.662 29.5955C132.159 30.9526 130.24 30.9526 129.738 29.5955L126.817 21.7032C126.659 21.2765 126.323 20.9401 125.896 20.7823L118.004 17.8618C116.647 17.3597 116.647 15.4403 118.004 14.9381L125.896 12.0177C126.323 11.8598 126.659 11.5234 126.817 11.0968L129.738 3.20445Z" fill="white"/>
<path d="M62.5131 17.0264C62.8221 16.1912 64.0033 16.1912 64.3123 17.0264L66.1095 21.8832C66.2066 22.1457 66.4136 22.3527 66.6762 22.4499L71.533 24.2471C72.3681 24.5561 72.3681 25.7373 71.533 26.0463L66.6762 27.8435C66.4136 27.9406 66.2066 28.1476 66.1095 28.4102L64.3123 33.267C64.0033 34.1021 62.8221 34.1021 62.5131 33.267L60.7159 28.4102C60.6187 28.1476 60.4117 27.9406 60.1492 27.8435L55.2924 26.0463C54.4572 25.7373 54.4572 24.5561 55.2924 24.2471L60.1492 22.4499C60.4117 22.3527 60.6187 22.1457 60.7159 21.8832L62.5131 17.0264Z" fill="white"/>
<path d="M7.20282 59.3532C7.35734 58.9356 7.94793 58.9356 8.10244 59.3532L9.00103 61.7816C9.0496 61.9129 9.15311 62.0164 9.28439 62.0649L11.7128 62.9635C12.1304 63.1181 12.1304 63.7086 11.7128 63.8632L9.28439 64.7617C9.15311 64.8103 9.0496 64.9138 9.00103 65.0451L8.10244 67.4735C7.94793 67.8911 7.35734 67.8911 7.20282 67.4735L6.30423 65.0451C6.25566 64.9138 6.15215 64.8103 6.02087 64.7617L3.59247 63.8632C3.17491 63.7086 3.17491 63.1181 3.59247 62.9635L6.02087 62.0649C6.15215 62.0164 6.25566 61.9129 6.30423 61.7816L7.20282 59.3532Z" fill="white"/>
<mask id="mask0_196_4533" style="mask-type:alpha" maskUnits="userSpaceOnUse" x="0" y="0" width="164" height="164">
<path d="M82 164C127.287 164 164 127.287 164 82C164 36.7127 127.287 0 82 0C36.7127 0 0 36.7127 0 82C0 127.287 36.7127 164 82 164Z" fill="url(#paint1_linear_196_4533)"/>
</mask>
<g mask="url(#mask0_196_4533)">
<rect x="16" y="113" width="132" height="85" rx="42.5" fill="url(#paint2_linear_196_4533)"/>
<path d="M41.2369 88.227C39.5955 65.5424 57.1316 45.9148 79.8433 44.7045V44.7045C101.831 43.5327 120.98 60.0764 122.736 82.0251V82.0251C124.535 104.513 107.433 124.178 84.9318 125.806V125.806C62.5484 127.426 42.8565 110.61 41.2369 88.227V88.227Z" fill="#2F2F2F" fill-opacity="0.07"/>
<rect x="38" y="49.012" width="82.0446" height="82.0485" rx="41.0223" transform="rotate(-4.13865 38 49.012)" fill="url(#paint3_linear_196_4533)"/>
<g filter="url(#filter0_f_196_4533)">
<ellipse cx="37.88" cy="137.413" rx="27.88" ry="22.4133" fill="black"/>
</g>
</g>
<defs>
<filter id="filter0_f_196_4533" x="-50" y="55" width="175.76" height="164.827" filterUnits="userSpaceOnUse" color-interpolation-filters="sRGB">
<feFlood flood-opacity="0" result="BackgroundImageFix"/>
<feBlend mode="normal" in="SourceGraphic" in2="BackgroundImageFix" result="shape"/>
<feGaussianBlur stdDeviation="30" result="effect1_foregroundBlur_196_4533"/>
</filter>
<linearGradient id="paint0_linear_196_4533" x1="82" y1="0" x2="82" y2="164" gradientUnits="userSpaceOnUse">
<stop stop-color="white" stop-opacity="0.56"/>
<stop offset="1" stop-color="white"/>
</linearGradient>
<linearGradient id="paint1_linear_196_4533" x1="82" y1="0" x2="82" y2="164" gradientUnits="userSpaceOnUse">
<stop stop-color="white"/>
<stop offset="1" stop-color="white"/>
</linearGradient>
<linearGradient id="paint2_linear_196_4533" x1="81.7558" y1="111.739" x2="71.8761" y2="181.568" gradientUnits="userSpaceOnUse">
<stop stop-color="#CC313D"/>
<stop offset="1" stop-color="#CC313D"/>
</linearGradient>
<linearGradient id="paint3_linear_196_4533" x1="123.133" y1="51.2311" x2="74.7237" y2="147.967" gradientUnits="userSpaceOnUse">
<stop stop-color="#CC313D"/>
<stop offset="1" stop-color="#F7C5CC"/>
</linearGradient>
</defs>
</svg>
