<svg width="32" height="32" viewBox="0 0 32 32" fill="none" xmlns="http://www.w3.org/2000/svg">
<path d="M4.9064 15.1111L3.6564 15.1111L3.6564 15.1111L4.9064 15.1111ZM4.90641 17.3333L4.026 18.2207C4.51335 18.7042 5.29946 18.7042 5.78681 18.2207L4.90641 17.3333ZM8.02656 15.9985C8.51663 15.5122 8.51974 14.7208 8.0335 14.2307C7.54727 13.7406 6.75582 13.7375 6.26575 14.2238L8.02656 15.9985ZM3.54706 14.2238C3.05699 13.7375 2.26554 13.7406 1.77931 14.2307C1.29307 14.7208 1.29618 15.5122 1.78625 15.9985L3.54706 14.2238ZM24.6078 9.98798C24.9693 10.5761 25.7392 10.7597 26.3273 10.3982C26.9154 10.0366 27.099 9.26679 26.7375 8.67868L24.6078 9.98798ZM16.1051 2.75C9.23917 2.75 3.6564 8.27502 3.6564 15.1111H6.1564C6.1564 9.67421 10.6013 5.25 16.1051 5.25V2.75ZM3.6564 15.1111L3.65641 17.3333L6.15641 17.3333L6.1564 15.1111L3.6564 15.1111ZM5.78681 18.2207L8.02656 15.9985L6.26575 14.2238L4.026 16.446L5.78681 18.2207ZM5.78681 16.446L3.54706 14.2238L1.78625 15.9985L4.026 18.2207L5.78681 16.446ZM26.7375 8.67868C24.5518 5.12334 20.6062 2.75 16.1051 2.75V5.25C19.708 5.25 22.8612 7.14696 24.6078 9.98798L26.7375 8.67868Z" fill="white"/>
<path d="M27.0852 14.6667L27.9639 13.7777C27.477 13.2964 26.6934 13.2964 26.2065 13.7777L27.0852 14.6667ZM23.9582 15.9999C23.4672 16.4852 23.4626 17.2766 23.9479 17.7676C24.4332 18.2586 25.2246 18.2632 25.7156 17.7779L23.9582 15.9999ZM28.4548 17.7779C28.9458 18.2632 29.7372 18.2586 30.2225 17.7676C30.7078 17.2766 30.7032 16.4852 30.2122 15.9999L28.4548 17.7779ZM7.30334 22.0102C6.94078 21.4227 6.17062 21.2404 5.58313 21.6029C4.99564 21.9655 4.81329 22.7357 5.17585 23.3232L7.30334 22.0102ZM15.8437 29.25C22.7288 29.25 28.3352 23.7295 28.3352 16.8889H25.8352C25.8352 22.3213 21.3756 26.75 15.8437 26.75V29.25ZM28.3352 16.8889V14.6667H25.8352V16.8889H28.3352ZM26.2065 13.7777L23.9582 15.9999L25.7156 17.7779L27.9639 15.5557L26.2065 13.7777ZM26.2065 15.5557L28.4548 17.7779L30.2122 15.9999L27.9639 13.7777L26.2065 15.5557ZM5.17585 23.3232C7.37011 26.8788 11.3294 29.25 15.8437 29.25V26.75C12.223 26.75 9.05643 24.851 7.30334 22.0102L5.17585 23.3232Z" fill="white"/>
</svg>
