<svg width="41" height="40" viewBox="0 0 41 40" fill="none" xmlns="http://www.w3.org/2000/svg">
<path opacity="0.5" d="M5.5 16.6667C5.5 10.3813 5.5 7.23862 7.45262 5.286C9.40524 3.33337 12.5479 3.33337 18.8333 3.33337H22.1667C28.4521 3.33337 31.5948 3.33337 33.5474 5.286C35.5 7.23862 35.5 10.3813 35.5 16.6667V23.3334C35.5 29.6188 35.5 32.7615 33.5474 34.7141C31.5948 36.6667 28.4521 36.6667 22.1667 36.6667H18.8333C12.5479 36.6667 9.40524 36.6667 7.45262 34.7141C5.5 32.7615 5.5 29.6188 5.5 23.3334V16.6667Z" fill="#2AD9B6"/>
<path d="M28.0315 27.5021C28.3232 27.2746 28.5877 27.0101 29.1168 26.481L35.7124 19.8854C35.8719 19.7259 35.7989 19.4513 35.5859 19.3773C34.8073 19.1072 33.7946 18.6001 32.8472 17.6528C31.8998 16.7054 31.3927 15.6926 31.1226 14.9141C31.0487 14.7011 30.774 14.6281 30.6146 14.7875L24.0189 21.3832C23.4899 21.9123 23.2253 22.1768 22.9978 22.4685C22.7295 22.8125 22.4994 23.1848 22.3116 23.5787C22.1525 23.9127 22.0342 24.2676 21.7976 24.9774L21.4919 25.8946L21.0057 27.353L20.5499 28.7204C20.4335 29.0697 20.5244 29.4549 20.7847 29.7152C21.0451 29.9756 21.4302 30.0665 21.7795 29.95L23.147 29.4942L24.6054 29.0081L25.5226 28.7024L25.5226 28.7023C26.2324 28.4657 26.5873 28.3474 26.9212 28.1883C27.3151 28.0006 27.6874 27.7705 28.0315 27.5021Z" fill="#2AD9B6"/>
<path d="M37.7775 17.8203C39.1853 16.4125 39.1853 14.1302 37.7775 12.7224C36.3698 11.3147 34.0874 11.3147 32.6797 12.7224L32.4677 12.9345C32.263 13.1391 32.1703 13.4249 32.2214 13.7097C32.2536 13.8889 32.3132 14.1508 32.4217 14.4634C32.6385 15.0885 33.0481 15.9091 33.8195 16.6805C34.5909 17.4519 35.4114 17.8614 36.0365 18.0783C36.3491 18.1867 36.6111 18.2464 36.7902 18.2785C37.0751 18.3296 37.3609 18.2369 37.5655 18.0323L37.7775 17.8203Z" fill="#2AD9B6"/>
<path fill-rule="evenodd" clip-rule="evenodd" d="M12.5834 15C12.5834 14.3096 13.143 13.75 13.8334 13.75H24.6667C25.3571 13.75 25.9167 14.3096 25.9167 15C25.9167 15.6904 25.3571 16.25 24.6667 16.25H13.8334C13.143 16.25 12.5834 15.6904 12.5834 15ZM12.5834 21.6667C12.5834 20.9763 13.143 20.4167 13.8334 20.4167H18.8334C19.5237 20.4167 20.0834 20.9763 20.0834 21.6667C20.0834 22.357 19.5237 22.9167 18.8334 22.9167H13.8334C13.143 22.9167 12.5834 22.357 12.5834 21.6667ZM12.5834 28.3333C12.5834 27.643 13.143 27.0833 13.8334 27.0833H16.3334C17.0237 27.0833 17.5834 27.643 17.5834 28.3333C17.5834 29.0237 17.0237 29.5833 16.3334 29.5833H13.8334C13.143 29.5833 12.5834 29.0237 12.5834 28.3333Z" fill="#2AD9B6"/>
</svg>
