<svg width="61" height="61" viewBox="0 0 61 61" fill="none" xmlns="http://www.w3.org/2000/svg">
<path opacity="0.5" d="M29.4722 55.9167H31.5279C38.6006 55.9167 42.137 55.9167 44.4363 53.665C46.7356 51.4132 46.9708 47.7196 47.4413 40.3325L48.1192 29.6882C48.3745 25.68 48.5021 23.6759 47.3486 22.406C46.1951 21.136 44.2472 21.136 40.3514 21.136H20.6487C16.7528 21.136 14.8049 21.136 13.6515 22.406C12.498 23.6759 12.6256 25.68 12.8809 29.6882L13.5588 40.3325C14.0293 47.7196 14.2645 51.4132 16.5638 53.665C18.8631 55.9167 22.3995 55.9167 29.4722 55.9167Z" fill="#EF3340"/>
<path d="M7.625 16.2311C7.625 14.9997 8.50284 14.0015 9.58571 14.0015L16.3573 14.0003C17.7028 13.9616 18.8897 12.9888 19.3475 11.5497C19.3596 11.5118 19.3734 11.4652 19.423 11.2958L19.7148 10.3003C19.8934 9.68991 20.0489 9.15814 20.2666 8.68282C21.1266 6.80499 22.7176 5.50102 24.5562 5.16717C25.0216 5.08266 25.5145 5.08302 26.0802 5.08343H34.9202C35.486 5.08302 35.9788 5.08266 36.4442 5.16717C38.2828 5.50102 39.8739 6.80499 40.7338 8.68282C40.9515 9.15814 41.1071 9.68991 41.2856 10.3003L41.5774 11.2958C41.627 11.4652 41.6409 11.5118 41.6529 11.5497C42.1107 12.9888 43.5331 13.9628 44.8786 14.0015H51.4143C52.4972 14.0015 53.375 14.9997 53.375 16.2311C53.375 17.4624 52.4972 18.4606 51.4143 18.4606H9.58571C8.50284 18.4606 7.625 17.4624 7.625 16.2311Z" fill="#EF3340"/>
<path fill-rule="evenodd" clip-rule="evenodd" d="M23.9563 29.1822C25.0039 29.072 25.938 29.8765 26.0428 30.9792L27.3136 44.3564C27.4184 45.4591 26.6541 46.4424 25.6065 46.5527C24.559 46.6629 23.6248 45.8584 23.5201 44.7557L22.2492 31.3785C22.1445 30.2758 22.9088 29.2925 23.9563 29.1822Z" fill="#EF3340"/>
<path fill-rule="evenodd" clip-rule="evenodd" d="M37.044 29.1822C38.0916 29.2925 38.8559 30.2758 38.7511 31.3785L37.4803 44.7557C37.3755 45.8584 36.4414 46.6629 35.3938 46.5527C34.3463 46.4424 33.582 45.4591 33.6867 44.3564L34.9576 30.9792C35.0623 29.8765 35.9965 29.072 37.044 29.1822Z" fill="#EF3340"/>
</svg>
