<svg width="34" height="35" viewBox="0 0 34 35" fill="none" xmlns="http://www.w3.org/2000/svg">
<path d="M29.8639 12.6552V22.3452C29.8639 23.9318 29.0139 25.4052 27.6397 26.2127L19.2247 31.0719C17.8505 31.8652 16.1505 31.8652 14.7622 31.0719L6.34721 26.2127C4.97305 25.4194 4.12305 23.946 4.12305 22.3452V12.6552C4.12305 11.0685 4.97305 9.59515 6.34721 8.78765L14.7622 3.9285C16.1364 3.13516 17.8364 3.13516 19.2247 3.9285L27.6397 8.78765C29.0139 9.59515 29.8639 11.0544 29.8639 12.6552Z" stroke="#4FC65B" stroke-width="3" stroke-linecap="round" stroke-linejoin="round"/>
<path opacity="0.4" d="M17.0001 16.0836C18.8231 16.0836 20.3009 14.6057 20.3009 12.7827C20.3009 10.9597 18.8231 9.48193 17.0001 9.48193C15.1771 9.48193 13.6992 10.9597 13.6992 12.7827C13.6992 14.6057 15.1771 16.0836 17.0001 16.0836Z" stroke="#4FC65B" stroke-width="3" stroke-linecap="round" stroke-linejoin="round"/>
<path opacity="0.4" d="M22.6673 24.1017C22.6673 21.5517 20.1315 19.4834 17.0007 19.4834C13.8698 19.4834 11.334 21.5517 11.334 24.1017" stroke="#4FC65B" stroke-width="3" stroke-linecap="round" stroke-linejoin="round"/>
</svg>
