<svg width="45" height="45" viewBox="0 0 45 45" fill="none" xmlns="http://www.w3.org/2000/svg">
<ellipse cx="22.5" cy="11.25" rx="7.5" ry="7.5" fill="white"/>
<path fill-rule="evenodd" clip-rule="evenodd" d="M35.625 30.6295C36.4016 30.6295 37.0312 31.2591 37.0312 32.0358V33.2812H38.2766C39.0533 33.2812 39.6829 33.9108 39.6829 34.6874C39.6829 35.4641 39.0533 36.0937 38.2766 36.0937H37.0312V37.339C37.0312 38.1157 36.4016 38.7453 35.625 38.7453C34.8483 38.7453 34.2187 38.1157 34.2187 37.339L34.2187 36.0937H32.9734C32.1967 36.0937 31.5671 35.4641 31.5671 34.6874C31.5671 33.9108 32.1967 33.2812 32.9734 33.2812H34.2187L34.2187 32.0358C34.2187 31.2591 34.8483 30.6295 35.625 30.6295Z" fill="white"/>
<path d="M30.2664 37.9235C28.0917 38.8371 25.4062 39.3768 22.5 39.3768C15.2513 39.3768 9.375 36.019 9.375 31.8768C9.375 27.7347 15.2513 24.3768 22.5 24.3768C27.394 24.3768 31.6624 25.9074 33.9191 28.1766C32.8439 28.6527 32.0048 29.5648 31.6262 30.6888C29.957 31.251 28.7549 32.829 28.7549 34.6878C28.7549 35.9873 29.3425 37.1496 30.2664 37.9235Z" fill="white"/>
</svg>
