<svg width="61" height="61" viewBox="0 0 61 61" fill="none" xmlns="http://www.w3.org/2000/svg">
<path opacity="0.5" d="M24.3806 8.13415C23.7617 8.66157 23.4522 8.92531 23.1217 9.14684C22.3641 9.65467 21.5131 10.0071 20.6183 10.1838C20.2279 10.2609 19.8226 10.2932 19.0119 10.3579L19.0119 10.3579C16.975 10.5204 15.9566 10.6017 15.107 10.9018C13.1418 11.596 11.596 13.1418 10.9018 15.107C10.6017 15.9566 10.5204 16.975 10.3579 19.0119L10.3579 19.0119C10.2932 19.8226 10.2609 20.2279 10.1838 20.6183C10.0071 21.5131 9.65467 22.3641 9.14684 23.1217C8.9253 23.4523 8.66157 23.7617 8.13412 24.3807L8.13406 24.3807C6.80875 25.9359 6.14606 26.7135 5.75746 27.5266C4.85868 29.407 4.85868 31.5931 5.75746 33.4735C6.14606 34.2865 6.80873 35.0641 8.13406 36.6193L8.13416 36.6195C8.66153 37.2383 8.92532 37.5478 9.14684 37.8783C9.65467 38.636 10.0071 39.4869 10.1838 40.3818C10.2609 40.7722 10.2932 41.1775 10.3579 41.9882L10.3579 41.9882C10.5204 44.025 10.6017 45.0435 10.9018 45.8931C11.596 47.8583 13.1418 49.4041 15.107 50.0983C15.9566 50.3984 16.975 50.4796 19.0118 50.6422L19.0119 50.6422C19.8226 50.7069 20.2279 50.7392 20.6183 50.8163C21.5131 50.993 22.3641 51.3454 23.1217 51.8532C23.4523 52.0748 23.7618 52.3385 24.3807 52.866C25.9359 54.1914 26.7135 54.854 27.5266 55.2426C29.407 56.1414 31.5931 56.1414 33.4735 55.2426C34.2865 54.854 35.0641 54.1914 36.6193 52.866L36.6194 52.8659C37.2384 52.3385 37.5478 52.0748 37.8783 51.8532C38.636 51.3454 39.4869 50.993 40.3818 50.8163C40.7722 50.7392 41.1775 50.7069 41.9882 50.6422L41.9883 50.6422C44.0251 50.4796 45.0435 50.3984 45.8931 50.0983C47.8583 49.4041 49.4041 47.8583 50.0983 45.8931C50.3984 45.0435 50.4796 44.0251 50.6422 41.9883L50.6422 41.9882C50.7069 41.1775 50.7392 40.7722 50.8163 40.3818C50.993 39.4869 51.3454 38.636 51.8532 37.8783C52.0748 37.5478 52.3385 37.2383 52.866 36.6193C54.1914 35.0641 54.854 34.2865 55.2426 33.4735C56.1414 31.5931 56.1414 29.407 55.2426 27.5266C54.854 26.7135 54.1914 25.9359 52.866 24.3807L52.866 24.3807C52.3385 23.7617 52.0748 23.4523 51.8532 23.1217C51.3454 22.3641 50.993 21.5131 50.8163 20.6183C50.7392 20.2279 50.7069 19.8226 50.6422 19.0119L50.6422 19.0118C50.4796 16.975 50.3984 15.9566 50.0983 15.107C49.4041 13.1418 47.8583 11.596 45.8931 10.9018C45.0435 10.6017 44.025 10.5204 41.9882 10.3579L41.9882 10.3579C41.1775 10.2932 40.7722 10.2609 40.3818 10.1838C39.4869 10.0071 38.636 9.65467 37.8783 9.14684C37.5478 8.9253 37.2383 8.66155 36.6193 8.13406C35.0641 6.80873 34.2865 6.14606 33.4735 5.75746C31.5931 4.85868 29.407 4.85868 27.5266 5.75746C26.7135 6.14606 25.9359 6.80874 24.3807 8.13406L24.3806 8.13415Z" fill="#2AD9B6"/>
<path d="M41.6161 25.0684C42.424 24.2605 42.424 22.9508 41.6161 22.143C40.8083 21.3352 39.4986 21.3352 38.6908 22.143L26.363 34.4707L22.3096 30.4172C21.5018 29.6094 20.192 29.6094 19.3842 30.4172C18.5764 31.225 18.5764 32.5348 19.3842 33.3426L24.9003 38.8588C25.7082 39.6666 27.0179 39.6666 27.8257 38.8588L41.6161 25.0684Z" fill="#2AD9B6"/>
</svg>
