<svg width="32" height="32" viewBox="0 0 32 32" fill="none" xmlns="http://www.w3.org/2000/svg">
<path d="M6.89559 4.22885C5.3335 5.79094 5.3335 8.3051 5.3335 13.3334V18.6667C5.3335 23.6951 5.3335 26.2092 6.89559 27.7713C8.45769 29.3334 10.9718 29.3334 16.0002 29.3334C21.0285 29.3334 23.5426 29.3334 25.1047 27.7713C26.6668 26.2092 26.6668 23.6951 26.6668 18.6667V13.3334C26.6668 8.3051 26.6668 5.79094 25.1047 4.22885C23.5426 2.66675 21.0285 2.66675 16.0002 2.66675C10.9718 2.66675 8.45769 2.66675 6.89559 4.22885Z" fill="url(#paint0_linear_282_6202)"/>
<path d="M12 5.66675C11.4477 5.66675 11 6.11446 11 6.66675C11 7.21903 11.4477 7.66675 12 7.66675H20C20.5523 7.66675 21 7.21903 21 6.66675C21 6.11446 20.5523 5.66675 20 5.66675H12Z" fill="#2F2F2F"/>
<path d="M16 25.3334C17.4728 25.3334 18.6667 24.1395 18.6667 22.6667C18.6667 21.194 17.4728 20.0001 16 20.0001C14.5272 20.0001 13.3333 21.194 13.3333 22.6667C13.3333 24.1395 14.5272 25.3334 16 25.3334Z" fill="#2F2F2F"/>
<defs>
<linearGradient id="paint0_linear_282_6202" x1="26.5878" y1="29.2347" x2="-3.39051" y2="5.55946" gradientUnits="userSpaceOnUse">
<stop offset="0.356985" stop-color="#CC313D"/>
<stop offset="1" stop-color="#F7C5CC"/>
</linearGradient>
</defs>
</svg>
