<svg width="32" height="32" viewBox="0 0 32 32" fill="none" xmlns="http://www.w3.org/2000/svg">
<path d="M9.25357 27.5066C11.2402 28.6666 13.5469 29.3333 16.0002 29.3333C23.5069 29.3333 29.7469 22.7066 29.3069 15.2133C28.8535 7.47995 21.8269 1.51995 13.7336 2.85328C8.16022 3.77328 3.69356 8.29328 2.82689 13.8666C2.32023 17.0933 2.98692 20.1466 4.44026 22.6666L3.25357 27.0799C2.9869 28.0799 3.90688 28.9866 4.89354 28.7066L9.25357 27.5066Z" fill="url(#paint0_linear_1136_8368)"/>
<path d="M22.6668 20.2266C22.6668 20.4666 22.6135 20.72 22.4935 20.96C22.3735 21.2 22.2269 21.4266 22.0402 21.64C21.7069 22 21.3469 22.2666 20.9469 22.4266C20.5469 22.6 20.1068 22.68 19.6401 22.68C18.9601 22.68 18.2268 22.52 17.4668 22.1866C16.6935 21.8533 15.9335 21.4133 15.1735 20.8666C14.4002 20.3066 13.6801 19.68 12.9868 19C12.2935 18.3066 11.6802 17.5733 11.1202 16.8133C10.5735 16.0533 10.1335 15.2933 9.81348 14.5333C9.49348 13.7733 9.3335 13.04 9.3335 12.3466C9.3335 11.8933 9.41349 11.4533 9.57349 11.0533C9.73349 10.64 9.98684 10.2666 10.3468 9.9333C10.7735 9.50663 11.2401 9.30664 11.7335 9.30664C11.9201 9.30664 12.1069 9.34664 12.2802 9.42664C12.4535 9.50664 12.6135 9.62663 12.7335 9.79997L14.2668 12C14.3868 12.1733 14.4802 12.32 14.5335 12.4666C14.6002 12.6133 14.6268 12.7466 14.6268 12.88C14.6268 13.04 14.5735 13.2 14.4801 13.36C14.3868 13.52 14.2669 13.68 14.1069 13.84L13.6002 14.3733C13.5202 14.4533 13.4935 14.5333 13.4935 14.64C13.4935 14.6933 13.5068 14.7466 13.5202 14.8C13.5468 14.8533 13.5602 14.8933 13.5735 14.9333C13.6935 15.16 13.9069 15.44 14.2002 15.7866C14.5069 16.1333 14.8268 16.4933 15.1735 16.84C15.5335 17.2 15.8802 17.52 16.2402 17.8266C16.5868 18.12 16.8802 18.32 17.1069 18.44C17.1469 18.4533 17.1868 18.48 17.2268 18.4933C17.2801 18.52 17.3335 18.52 17.4001 18.52C17.5201 18.52 17.6002 18.48 17.6802 18.4L18.1868 17.8933C18.3602 17.72 18.5202 17.6 18.6668 17.52C18.8268 17.4266 18.9735 17.3733 19.1468 17.3733C19.2801 17.3733 19.4135 17.4 19.5601 17.4666C19.7068 17.5333 19.8669 17.6133 20.0269 17.7333L22.2402 19.3066C22.4135 19.4266 22.5335 19.5733 22.6135 19.7333C22.6269 19.88 22.6668 20.04 22.6668 20.2266Z" fill="#2F2F2F"/>
<defs>
<linearGradient id="paint0_linear_1136_8368" x1="29.23" y1="29.2345" x2="-1.58552" y2="-1.18921" gradientUnits="userSpaceOnUse">
<stop offset="0.356985" stop-color="#CC313D"/>
<stop offset="1" stop-color="#F7C5CC"/>
</linearGradient>
</defs>
</svg>
